<svg width="30" height="30" viewBox="0 0 30 30" fill="none" xmlns="http://www.w3.org/2000/svg">
<path fill-rule="evenodd" clip-rule="evenodd" d="M15 5.72838e-09C6.75 5.72838e-09 0 6.91966 0 15.377C0 22.2006 4.3125 27.9669 10.2188 29.9852C10.9688 30.0813 11.25 29.6969 11.25 29.2163C11.25 28.8319 11.25 27.8708 11.25 26.6215C7.03125 27.5825 6.1875 24.6032 6.1875 24.6032C5.53125 22.8733 4.5 22.3928 4.5 22.3928C3.09375 21.4317 4.59375 21.4317 4.59375 21.4317C6.09375 21.5278 6.9375 22.9694 6.9375 22.9694C8.25 25.276 10.4062 24.6032 11.3438 24.2188C11.4375 23.2577 11.9062 22.585 12.2812 22.2006C8.90625 21.8161 5.4375 20.4706 5.4375 14.6082C5.4375 12.9744 6 11.5328 6.9375 10.4756C6.75 10.0912 6.28125 8.55346 7.125 6.43912C7.125 6.43912 8.34375 6.0547 11.25 7.97683C12.4688 7.5924 13.6875 7.49629 15 7.49629C16.3125 7.49629 17.5312 7.68851 18.75 7.97683C21.6562 5.95859 22.875 6.34302 22.875 6.34302C23.7188 8.45736 23.1562 9.99506 23.0625 10.3795C24 11.4367 24.5625 12.7821 24.5625 14.5121C24.5625 20.3745 21.0938 21.72 17.7188 22.1045C18.2812 22.585 18.75 23.5461 18.75 24.9876C18.75 27.0059 18.75 28.7358 18.75 29.2163C18.75 29.6007 19.0312 30.0813 19.7812 29.9852C25.6875 27.9669 30 22.2006 30 15.377C30 6.91966 23.25 5.72838e-09 15 5.72838e-09Z" fill="#F2F2F2"/>
</svg>
