<svg width="269" height="65" viewBox="0 0 269 65" fill="none" xmlns="http://www.w3.org/2000/svg">
<path d="M0 0L40.5 17.5L79.5 0L121 17.5L163 0L211.5 17.5" transform="translate(26.5 23)" stroke="#BDBDBD" stroke-dasharray="2 2"/>
<circle cx="5" cy="5" r="5" transform="translate(21 18)" fill="#B1CBE7"/>
<circle cx="5" cy="5" r="5" transform="translate(101 18)" fill="#B1CBE7"/>
<circle cx="5" cy="5" r="5" transform="translate(184 18)" fill="#B1CBE7"/>
<circle cx="5" cy="5" r="5" transform="translate(233 35)" fill="#B1CBE7"/>
<circle cx="5" cy="5" r="5" transform="translate(62 35)" fill="#B1CBE7"/>
<circle cx="5" cy="5" r="5" transform="translate(142 35)" fill="#B1CBE7"/>
<path d="M6.05273 10.7207C6.05273 11.4746 5.7793 12.0625 5.23242 12.4844C4.68555 12.9062 3.94336 13.1172 3.00586 13.1172C1.99023 13.1172 1.20898 12.9863 0.662109 12.7246V11.7637C1.01367 11.9121 1.39648 12.0293 1.81055 12.1152C2.22461 12.2012 2.63477 12.2441 3.04102 12.2441C3.70508 12.2441 4.20508 12.1191 4.54102 11.8691C4.87695 11.6152 5.04492 11.2637 5.04492 10.8145C5.04492 10.5176 4.98438 10.2754 4.86328 10.0879C4.74609 9.89648 4.54688 9.7207 4.26562 9.56055C3.98828 9.40039 3.56445 9.21875 2.99414 9.01562C2.19727 8.73047 1.62695 8.39258 1.2832 8.00195C0.943359 7.61133 0.773438 7.10156 0.773438 6.47266C0.773438 5.8125 1.02148 5.28711 1.51758 4.89648C2.01367 4.50586 2.66992 4.31055 3.48633 4.31055C4.33789 4.31055 5.12109 4.4668 5.83594 4.7793L5.52539 5.64648C4.81836 5.34961 4.13086 5.20117 3.46289 5.20117C2.93555 5.20117 2.52344 5.31445 2.22656 5.54102C1.92969 5.76758 1.78125 6.08203 1.78125 6.48438C1.78125 6.78125 1.83594 7.02539 1.94531 7.2168C2.05469 7.4043 2.23828 7.57812 2.49609 7.73828C2.75781 7.89453 3.15625 8.06836 3.69141 8.25977C4.58984 8.58008 5.20703 8.92383 5.54297 9.29102C5.88281 9.6582 6.05273 10.1348 6.05273 10.7207ZM8.57227 6.57812V10.7441C8.57227 11.2676 8.69141 11.6582 8.92969 11.916C9.16797 12.1738 9.54102 12.3027 10.0488 12.3027C10.7207 12.3027 11.2109 12.1191 11.5195 11.752C11.832 11.3848 11.9883 10.7852 11.9883 9.95312V6.57812H12.9609V13H12.1582L12.0176 12.1387H11.9648C11.7656 12.4551 11.4883 12.6973 11.1328 12.8652C10.7812 13.0332 10.3789 13.1172 9.92578 13.1172C9.14453 13.1172 8.55859 12.9316 8.16797 12.5605C7.78125 12.1895 7.58789 11.5957 7.58789 10.7793V6.57812H8.57227ZM23.2148 13V8.82227C23.2148 8.31055 23.1055 7.92773 22.8867 7.67383C22.668 7.41602 22.3281 7.28711 21.8672 7.28711C21.2617 7.28711 20.8145 7.46094 20.5254 7.80859C20.2363 8.15625 20.0918 8.69141 20.0918 9.41406V13H19.1191V8.82227C19.1191 8.31055 19.0098 7.92773 18.791 7.67383C18.5723 7.41602 18.2305 7.28711 17.7656 7.28711C17.1562 7.28711 16.709 7.4707 16.4238 7.83789C16.1426 8.20117 16.002 8.79883 16.002 9.63086V13H15.0293V6.57812H15.8203L15.9785 7.45703H16.0254C16.209 7.14453 16.4668 6.90039 16.7988 6.72461C17.1348 6.54883 17.5098 6.46094 17.9238 6.46094C18.9277 6.46094 19.584 6.82422 19.8926 7.55078H19.9395C20.1309 7.21484 20.4082 6.94922 20.7715 6.75391C21.1348 6.55859 21.5488 6.46094 22.0137 6.46094C22.7402 6.46094 23.2832 6.64844 23.6426 7.02344C24.0059 7.39453 24.1875 7.99023 24.1875 8.81055V13H23.2148ZM34.3828 13V8.82227C34.3828 8.31055 34.2734 7.92773 34.0547 7.67383C33.8359 7.41602 33.4961 7.28711 33.0352 7.28711C32.4297 7.28711 31.9824 7.46094 31.6934 7.80859C31.4043 8.15625 31.2598 8.69141 31.2598 9.41406V13H30.2871V8.82227C30.2871 8.31055 30.1777 7.92773 29.959 7.67383C29.7402 7.41602 29.3984 7.28711 28.9336 7.28711C28.3242 7.28711 27.877 7.4707 27.5918 7.83789C27.3105 8.20117 27.1699 8.79883 27.1699 9.63086V13H26.1973V6.57812H26.9883L27.1465 7.45703H27.1934C27.377 7.14453 27.6348 6.90039 27.9668 6.72461C28.3027 6.54883 28.6777 6.46094 29.0918 6.46094C30.0957 6.46094 30.752 6.82422 31.0605 7.55078H31.1074C31.2988 7.21484 31.5762 6.94922 31.9395 6.75391C32.3027 6.55859 32.7168 6.46094 33.1816 6.46094C33.9082 6.46094 34.4512 6.64844 34.8105 7.02344C35.1738 7.39453 35.3555 7.99023 35.3555 8.81055V13H34.3828ZM41.3145 13L41.1211 12.0859H41.0742C40.7539 12.4883 40.4336 12.7617 40.1133 12.9062C39.7969 13.0469 39.4004 13.1172 38.9238 13.1172C38.2871 13.1172 37.7871 12.9531 37.4238 12.625C37.0645 12.2969 36.8848 11.8301 36.8848 11.2246C36.8848 9.92773 37.9219 9.24805 39.9961 9.18555L41.0859 9.15039V8.75195C41.0859 8.24805 40.9766 7.87695 40.7578 7.63867C40.543 7.39648 40.1973 7.27539 39.7207 7.27539C39.1855 7.27539 38.5801 7.43945 37.9043 7.76758L37.6055 7.02344C37.9219 6.85156 38.2676 6.7168 38.6426 6.61914C39.0215 6.52148 39.4004 6.47266 39.7793 6.47266C40.5449 6.47266 41.1113 6.64258 41.4785 6.98242C41.8496 7.32227 42.0352 7.86719 42.0352 8.61719V13H41.3145ZM39.1172 12.3145C39.7227 12.3145 40.1973 12.1484 40.541 11.8164C40.8887 11.4844 41.0625 11.0195 41.0625 10.4219V9.8418L40.0898 9.88281C39.3164 9.91016 38.7578 10.0312 38.4141 10.2461C38.0742 10.457 37.9043 10.7871 37.9043 11.2363C37.9043 11.5879 38.0098 11.8555 38.2207 12.0391C38.4355 12.2227 38.7344 12.3145 39.1172 12.3145ZM46.9746 6.46094C47.2598 6.46094 47.5156 6.48438 47.7422 6.53125L47.6074 7.43359C47.3418 7.375 47.1074 7.3457 46.9043 7.3457C46.3848 7.3457 45.9395 7.55664 45.5684 7.97852C45.2012 8.40039 45.0176 8.92578 45.0176 9.55469V13H44.0449V6.57812H44.8477L44.959 7.76758H45.0059C45.2441 7.34961 45.5312 7.02734 45.8672 6.80078C46.2031 6.57422 46.5723 6.46094 46.9746 6.46094ZM47.9238 6.57812H48.9668L50.373 10.2402C50.6816 11.0762 50.873 11.6797 50.9473 12.0508H50.9941C51.0449 11.8516 51.1504 11.5117 51.3105 11.0312C51.4746 10.5469 52.0059 9.0625 52.9043 6.57812H53.9473L51.1875 13.8906C50.9141 14.6133 50.5938 15.125 50.2266 15.4258C49.8633 15.7305 49.416 15.8828 48.8848 15.8828C48.5879 15.8828 48.2949 15.8496 48.0059 15.7832V15.0039C48.2207 15.0508 48.4609 15.0742 48.7266 15.0742C49.3945 15.0742 49.8711 14.6992 50.1562 13.9492L50.5137 13.0352L47.9238 6.57812Z" transform="translate(0 -3)" fill="black"/>
<path d="M6.40234 13H1.62695V4.43359H6.40234V5.31836H2.62305V8.07812H6.17383V8.95703H2.62305V12.1094H6.40234V13ZM9.70703 9.71289L7.47461 6.57812H8.58203L10.2754 9.03906L11.9629 6.57812H13.0586L10.8262 9.71289L13.1758 13H12.0742L10.2754 10.3984L8.45898 13H7.35742L9.70703 9.71289ZM17.4414 13.1172C17.0234 13.1172 16.6406 13.041 16.293 12.8887C15.9492 12.7324 15.6602 12.4941 15.4258 12.1738H15.3555C15.4023 12.5488 15.4258 12.9043 15.4258 13.2402V15.8828H14.4531V6.57812H15.2441L15.3789 7.45703H15.4258C15.6758 7.10547 15.9668 6.85156 16.2988 6.69531C16.6309 6.53906 17.0117 6.46094 17.4414 6.46094C18.293 6.46094 18.9492 6.75195 19.4102 7.33398C19.875 7.91602 20.1074 8.73242 20.1074 9.7832C20.1074 10.8379 19.8711 11.6582 19.3984 12.2441C18.9297 12.8262 18.2773 13.1172 17.4414 13.1172ZM17.3008 7.28711C16.6445 7.28711 16.1699 7.46875 15.877 7.83203C15.584 8.19531 15.4336 8.77344 15.4258 9.56641V9.7832C15.4258 10.6855 15.5762 11.332 15.877 11.7227C16.1777 12.1094 16.6602 12.3027 17.3242 12.3027C17.8789 12.3027 18.3125 12.0781 18.625 11.6289C18.9414 11.1797 19.0996 10.5605 19.0996 9.77148C19.0996 8.9707 18.9414 8.35742 18.625 7.93164C18.3125 7.50195 17.8711 7.28711 17.3008 7.28711ZM22.7852 13H21.8125V3.88281H22.7852V13ZM30.3906 9.7832C30.3906 10.8301 30.127 11.6484 29.5996 12.2383C29.0723 12.8242 28.3438 13.1172 27.4141 13.1172C26.8398 13.1172 26.3301 12.9824 25.8848 12.7129C25.4395 12.4434 25.0957 12.0566 24.8535 11.5527C24.6113 11.0488 24.4902 10.459 24.4902 9.7832C24.4902 8.73633 24.752 7.92188 25.2754 7.33984C25.7988 6.75391 26.5254 6.46094 27.4551 6.46094C28.3535 6.46094 29.0664 6.75977 29.5938 7.35742C30.125 7.95508 30.3906 8.76367 30.3906 9.7832ZM25.498 9.7832C25.498 10.6035 25.6621 11.2285 25.9902 11.6582C26.3184 12.0879 26.8008 12.3027 27.4375 12.3027C28.0742 12.3027 28.5566 12.0898 28.8848 11.6641C29.2168 11.2344 29.3828 10.6074 29.3828 9.7832C29.3828 8.9668 29.2168 8.34766 28.8848 7.92578C28.5566 7.5 28.0703 7.28711 27.4258 7.28711C26.7891 7.28711 26.3086 7.49609 25.9844 7.91406C25.6602 8.33203 25.498 8.95508 25.498 9.7832ZM35.0312 6.46094C35.3164 6.46094 35.5723 6.48438 35.7988 6.53125L35.6641 7.43359C35.3984 7.375 35.1641 7.3457 34.9609 7.3457C34.4414 7.3457 33.9961 7.55664 33.625 7.97852C33.2578 8.40039 33.0742 8.92578 33.0742 9.55469V13H32.1016V6.57812H32.9043L33.0156 7.76758H33.0625C33.3008 7.34961 33.5879 7.02734 33.9238 6.80078C34.2598 6.57422 34.6289 6.46094 35.0312 6.46094ZM40.9492 13L40.7559 12.0859H40.709C40.3887 12.4883 40.0684 12.7617 39.748 12.9062C39.4316 13.0469 39.0352 13.1172 38.5586 13.1172C37.9219 13.1172 37.4219 12.9531 37.0586 12.625C36.6992 12.2969 36.5195 11.8301 36.5195 11.2246C36.5195 9.92773 37.5566 9.24805 39.6309 9.18555L40.7207 9.15039V8.75195C40.7207 8.24805 40.6113 7.87695 40.3926 7.63867C40.1777 7.39648 39.832 7.27539 39.3555 7.27539C38.8203 7.27539 38.2148 7.43945 37.5391 7.76758L37.2402 7.02344C37.5566 6.85156 37.9023 6.7168 38.2773 6.61914C38.6562 6.52148 39.0352 6.47266 39.4141 6.47266C40.1797 6.47266 40.7461 6.64258 41.1133 6.98242C41.4844 7.32227 41.6699 7.86719 41.6699 8.61719V13H40.9492ZM38.752 12.3145C39.3574 12.3145 39.832 12.1484 40.1758 11.8164C40.5234 11.4844 40.6973 11.0195 40.6973 10.4219V9.8418L39.7246 9.88281C38.9512 9.91016 38.3926 10.0312 38.0488 10.2461C37.709 10.457 37.5391 10.7871 37.5391 11.2363C37.5391 11.5879 37.6445 11.8555 37.8555 12.0391C38.0703 12.2227 38.3691 12.3145 38.752 12.3145ZM45.7539 12.3145C45.9258 12.3145 46.0918 12.3027 46.252 12.2793C46.4121 12.252 46.5391 12.2246 46.6328 12.1973V12.9414C46.5273 12.9922 46.3711 13.0332 46.1641 13.0645C45.9609 13.0996 45.7773 13.1172 45.6133 13.1172C44.3711 13.1172 43.75 12.4629 43.75 11.1543V7.33398H42.8301V6.86523L43.75 6.46094L44.1602 5.08984H44.7227V6.57812H46.5859V7.33398H44.7227V11.1133C44.7227 11.5 44.8145 11.7969 44.998 12.0039C45.1816 12.2109 45.4336 12.3145 45.7539 12.3145ZM48.8945 13H47.9219V6.57812H48.8945V13ZM47.8398 4.83789C47.8398 4.61523 47.8945 4.45312 48.0039 4.35156C48.1133 4.24609 48.25 4.19336 48.4141 4.19336C48.5703 4.19336 48.7051 4.24609 48.8184 4.35156C48.9316 4.45703 48.9883 4.61914 48.9883 4.83789C48.9883 5.05664 48.9316 5.2207 48.8184 5.33008C48.7051 5.43555 48.5703 5.48828 48.4141 5.48828C48.25 5.48828 48.1133 5.43555 48.0039 5.33008C47.8945 5.2207 47.8398 5.05664 47.8398 4.83789ZM56.5 9.7832C56.5 10.8301 56.2363 11.6484 55.709 12.2383C55.1816 12.8242 54.4531 13.1172 53.5234 13.1172C52.9492 13.1172 52.4395 12.9824 51.9941 12.7129C51.5488 12.4434 51.2051 12.0566 50.9629 11.5527C50.7207 11.0488 50.5996 10.459 50.5996 9.7832C50.5996 8.73633 50.8613 7.92188 51.3848 7.33984C51.9082 6.75391 52.6348 6.46094 53.5645 6.46094C54.4629 6.46094 55.1758 6.75977 55.7031 7.35742C56.2344 7.95508 56.5 8.76367 56.5 9.7832ZM51.6074 9.7832C51.6074 10.6035 51.7715 11.2285 52.0996 11.6582C52.4277 12.0879 52.9102 12.3027 53.5469 12.3027C54.1836 12.3027 54.666 12.0898 54.9941 11.6641C55.3262 11.2344 55.4922 10.6074 55.4922 9.7832C55.4922 8.9668 55.3262 8.34766 54.9941 7.92578C54.666 7.5 54.1797 7.28711 53.5352 7.28711C52.8984 7.28711 52.418 7.49609 52.0938 7.91406C51.7695 8.33203 51.6074 8.95508 51.6074 9.7832ZM62.6055 13V8.8457C62.6055 8.32227 62.4863 7.93164 62.248 7.67383C62.0098 7.41602 61.6367 7.28711 61.1289 7.28711C60.457 7.28711 59.9648 7.46875 59.6523 7.83203C59.3398 8.19531 59.1836 8.79492 59.1836 9.63086V13H58.2109V6.57812H59.002L59.1602 7.45703H59.207C59.4062 7.14062 59.6855 6.89648 60.0449 6.72461C60.4043 6.54883 60.8047 6.46094 61.2461 6.46094C62.0195 6.46094 62.6016 6.64844 62.9922 7.02344C63.3828 7.39453 63.5781 7.99023 63.5781 8.81055V13H62.6055Z" transform="translate(37 49)" fill="black"/>
<path d="M1.66211 13V4.43359H2.6582V13H1.66211ZM9.23828 12.1387H9.18555C8.73633 12.791 8.06445 13.1172 7.16992 13.1172C6.33008 13.1172 5.67578 12.8301 5.20703 12.2559C4.74219 11.6816 4.50977 10.8652 4.50977 9.80664C4.50977 8.74805 4.74414 7.92578 5.21289 7.33984C5.68164 6.75391 6.33398 6.46094 7.16992 6.46094C8.04102 6.46094 8.70898 6.77734 9.17383 7.41016H9.25L9.20898 6.94727L9.18555 6.49609V3.88281H10.1582V13H9.36719L9.23828 12.1387ZM7.29297 12.3027C7.95703 12.3027 8.4375 12.123 8.73438 11.7637C9.03516 11.4004 9.18555 10.8164 9.18555 10.0117V9.80664C9.18555 8.89648 9.0332 8.24805 8.72852 7.86133C8.42773 7.4707 7.94531 7.27539 7.28125 7.27539C6.71094 7.27539 6.27344 7.49805 5.96875 7.94336C5.66797 8.38477 5.51758 9.00977 5.51758 9.81836C5.51758 10.6387 5.66797 11.2578 5.96875 11.6758C6.26953 12.0938 6.71094 12.3027 7.29297 12.3027ZM14.9395 13.1172C13.9902 13.1172 13.2402 12.8281 12.6895 12.25C12.1426 11.6719 11.8691 10.8691 11.8691 9.8418C11.8691 8.80664 12.123 7.98438 12.6309 7.375C13.1426 6.76562 13.8281 6.46094 14.6875 6.46094C15.4922 6.46094 16.1289 6.72656 16.5977 7.25781C17.0664 7.78516 17.3008 8.48242 17.3008 9.34961V9.96484H12.877C12.8965 10.7188 13.0859 11.291 13.4453 11.6816C13.8086 12.0723 14.3184 12.2676 14.9746 12.2676C15.666 12.2676 16.3496 12.123 17.0254 11.834V12.7012C16.6816 12.8496 16.3555 12.9551 16.0469 13.0176C15.7422 13.084 15.373 13.1172 14.9395 13.1172ZM14.6758 7.27539C14.1602 7.27539 13.748 7.44336 13.4395 7.7793C13.1348 8.11523 12.9551 8.58008 12.9004 9.17383H16.2578C16.2578 8.56055 16.1211 8.0918 15.8477 7.76758C15.5742 7.43945 15.1836 7.27539 14.6758 7.27539ZM22.9141 13L22.7207 12.0859H22.6738C22.3535 12.4883 22.0332 12.7617 21.7129 12.9062C21.3965 13.0469 21 13.1172 20.5234 13.1172C19.8867 13.1172 19.3867 12.9531 19.0234 12.625C18.6641 12.2969 18.4844 11.8301 18.4844 11.2246C18.4844 9.92773 19.5215 9.24805 21.5957 9.18555L22.6855 9.15039V8.75195C22.6855 8.24805 22.5762 7.87695 22.3574 7.63867C22.1426 7.39648 21.7969 7.27539 21.3203 7.27539C20.7852 7.27539 20.1797 7.43945 19.5039 7.76758L19.2051 7.02344C19.5215 6.85156 19.8672 6.7168 20.2422 6.61914C20.6211 6.52148 21 6.47266 21.3789 6.47266C22.1445 6.47266 22.7109 6.64258 23.0781 6.98242C23.4492 7.32227 23.6348 7.86719 23.6348 8.61719V13H22.9141ZM20.7168 12.3145C21.3223 12.3145 21.7969 12.1484 22.1406 11.8164C22.4883 11.4844 22.6621 11.0195 22.6621 10.4219V9.8418L21.6895 9.88281C20.916 9.91016 20.3574 10.0312 20.0137 10.2461C19.6738 10.457 19.5039 10.7871 19.5039 11.2363C19.5039 11.5879 19.6094 11.8555 19.8203 12.0391C20.0352 12.2227 20.334 12.3145 20.7168 12.3145ZM27.7188 12.3145C27.8906 12.3145 28.0566 12.3027 28.2168 12.2793C28.377 12.252 28.5039 12.2246 28.5977 12.1973V12.9414C28.4922 12.9922 28.3359 13.0332 28.1289 13.0645C27.9258 13.0996 27.7422 13.1172 27.5781 13.1172C26.3359 13.1172 25.7148 12.4629 25.7148 11.1543V7.33398H24.7949V6.86523L25.7148 6.46094L26.125 5.08984H26.6875V6.57812H28.5508V7.33398H26.6875V11.1133C26.6875 11.5 26.7793 11.7969 26.9629 12.0039C27.1465 12.2109 27.3984 12.3145 27.7188 12.3145ZM30.8594 13H29.8867V6.57812H30.8594V13ZM29.8047 4.83789C29.8047 4.61523 29.8594 4.45312 29.9688 4.35156C30.0781 4.24609 30.2148 4.19336 30.3789 4.19336C30.5352 4.19336 30.6699 4.24609 30.7832 4.35156C30.8965 4.45703 30.9531 4.61914 30.9531 4.83789C30.9531 5.05664 30.8965 5.2207 30.7832 5.33008C30.6699 5.43555 30.5352 5.48828 30.3789 5.48828C30.2148 5.48828 30.0781 5.43555 29.9688 5.33008C29.8594 5.2207 29.8047 5.05664 29.8047 4.83789ZM38.4648 9.7832C38.4648 10.8301 38.2012 11.6484 37.6738 12.2383C37.1465 12.8242 36.418 13.1172 35.4883 13.1172C34.9141 13.1172 34.4043 12.9824 33.959 12.7129C33.5137 12.4434 33.1699 12.0566 32.9277 11.5527C32.6855 11.0488 32.5645 10.459 32.5645 9.7832C32.5645 8.73633 32.8262 7.92188 33.3496 7.33984C33.873 6.75391 34.5996 6.46094 35.5293 6.46094C36.4277 6.46094 37.1406 6.75977 37.668 7.35742C38.1992 7.95508 38.4648 8.76367 38.4648 9.7832ZM33.5723 9.7832C33.5723 10.6035 33.7363 11.2285 34.0645 11.6582C34.3926 12.0879 34.875 12.3027 35.5117 12.3027C36.1484 12.3027 36.6309 12.0898 36.959 11.6641C37.291 11.2344 37.457 10.6074 37.457 9.7832C37.457 8.9668 37.291 8.34766 36.959 7.92578C36.6309 7.5 36.1445 7.28711 35.5 7.28711C34.8633 7.28711 34.3828 7.49609 34.0586 7.91406C33.7344 8.33203 33.5723 8.95508 33.5723 9.7832ZM44.5703 13V8.8457C44.5703 8.32227 44.4512 7.93164 44.2129 7.67383C43.9746 7.41602 43.6016 7.28711 43.0938 7.28711C42.4219 7.28711 41.9297 7.46875 41.6172 7.83203C41.3047 8.19531 41.1484 8.79492 41.1484 9.63086V13H40.1758V6.57812H40.9668L41.125 7.45703H41.1719C41.3711 7.14062 41.6504 6.89648 42.0098 6.72461C42.3691 6.54883 42.7695 6.46094 43.2109 6.46094C43.9844 6.46094 44.5664 6.64844 44.957 7.02344C45.3477 7.39453 45.543 7.99023 45.543 8.81055V13H44.5703Z" transform="translate(83 -3)" fill="black"/>
<path d="M6.80859 6.92969C6.80859 7.79688 6.51172 8.46484 5.91797 8.93359C5.32812 9.39844 4.48242 9.63086 3.38086 9.63086H2.37305V13H1.37695V4.43359H3.59766C5.73828 4.43359 6.80859 5.26562 6.80859 6.92969ZM2.37305 8.77539H3.26953C4.15234 8.77539 4.79102 8.63281 5.18555 8.34766C5.58008 8.0625 5.77734 7.60547 5.77734 6.97656C5.77734 6.41016 5.5918 5.98828 5.2207 5.71094C4.84961 5.43359 4.27148 5.29492 3.48633 5.29492H2.37305V8.77539ZM11.3906 6.46094C11.6758 6.46094 11.9316 6.48438 12.1582 6.53125L12.0234 7.43359C11.7578 7.375 11.5234 7.3457 11.3203 7.3457C10.8008 7.3457 10.3555 7.55664 9.98438 7.97852C9.61719 8.40039 9.43359 8.92578 9.43359 9.55469V13H8.46094V6.57812H9.26367L9.375 7.76758H9.42188C9.66016 7.34961 9.94727 7.02734 10.2832 6.80078C10.6191 6.57422 10.9883 6.46094 11.3906 6.46094ZM18.9023 9.7832C18.9023 10.8301 18.6387 11.6484 18.1113 12.2383C17.584 12.8242 16.8555 13.1172 15.9258 13.1172C15.3516 13.1172 14.8418 12.9824 14.3965 12.7129C13.9512 12.4434 13.6074 12.0566 13.3652 11.5527C13.123 11.0488 13.002 10.459 13.002 9.7832C13.002 8.73633 13.2637 7.92188 13.7871 7.33984C14.3105 6.75391 15.0371 6.46094 15.9668 6.46094C16.8652 6.46094 17.5781 6.75977 18.1055 7.35742C18.6367 7.95508 18.9023 8.76367 18.9023 9.7832ZM14.0098 9.7832C14.0098 10.6035 14.1738 11.2285 14.502 11.6582C14.8301 12.0879 15.3125 12.3027 15.9492 12.3027C16.5859 12.3027 17.0684 12.0898 17.3965 11.6641C17.7285 11.2344 17.8945 10.6074 17.8945 9.7832C17.8945 8.9668 17.7285 8.34766 17.3965 7.92578C17.0684 7.5 16.582 7.28711 15.9375 7.28711C15.3008 7.28711 14.8203 7.49609 14.4961 7.91406C14.1719 8.33203 14.0098 8.95508 14.0098 9.7832ZM22.6875 12.3145C22.8594 12.3145 23.0254 12.3027 23.1855 12.2793C23.3457 12.252 23.4727 12.2246 23.5664 12.1973V12.9414C23.4609 12.9922 23.3047 13.0332 23.0977 13.0645C22.8945 13.0996 22.7109 13.1172 22.5469 13.1172C21.3047 13.1172 20.6836 12.4629 20.6836 11.1543V7.33398H19.7637V6.86523L20.6836 6.46094L21.0938 5.08984H21.6562V6.57812H23.5195V7.33398H21.6562V11.1133C21.6562 11.5 21.748 11.7969 21.9316 12.0039C22.1152 12.2109 22.3672 12.3145 22.6875 12.3145ZM30.3984 9.7832C30.3984 10.8301 30.1348 11.6484 29.6074 12.2383C29.0801 12.8242 28.3516 13.1172 27.4219 13.1172C26.8477 13.1172 26.3379 12.9824 25.8926 12.7129C25.4473 12.4434 25.1035 12.0566 24.8613 11.5527C24.6191 11.0488 24.498 10.459 24.498 9.7832C24.498 8.73633 24.7598 7.92188 25.2832 7.33984C25.8066 6.75391 26.5332 6.46094 27.4629 6.46094C28.3613 6.46094 29.0742 6.75977 29.6016 7.35742C30.1328 7.95508 30.3984 8.76367 30.3984 9.7832ZM25.5059 9.7832C25.5059 10.6035 25.6699 11.2285 25.998 11.6582C26.3262 12.0879 26.8086 12.3027 27.4453 12.3027C28.082 12.3027 28.5645 12.0898 28.8926 11.6641C29.2246 11.2344 29.3906 10.6074 29.3906 9.7832C29.3906 8.9668 29.2246 8.34766 28.8926 7.92578C28.5645 7.5 28.0781 7.28711 27.4336 7.28711C26.7969 7.28711 26.3164 7.49609 25.9922 7.91406C25.668 8.33203 25.5059 8.95508 25.5059 9.7832ZM34.1836 12.3145C34.3555 12.3145 34.5215 12.3027 34.6816 12.2793C34.8418 12.252 34.9688 12.2246 35.0625 12.1973V12.9414C34.957 12.9922 34.8008 13.0332 34.5938 13.0645C34.3906 13.0996 34.207 13.1172 34.043 13.1172C32.8008 13.1172 32.1797 12.4629 32.1797 11.1543V7.33398H31.2598V6.86523L32.1797 6.46094L32.5898 5.08984H33.1523V6.57812H35.0156V7.33398H33.1523V11.1133C33.1523 11.5 33.2441 11.7969 33.4277 12.0039C33.6113 12.2109 33.8633 12.3145 34.1836 12.3145ZM35.332 6.57812H36.375L37.7812 10.2402C38.0898 11.0762 38.2812 11.6797 38.3555 12.0508H38.4023C38.4531 11.8516 38.5586 11.5117 38.7188 11.0312C38.8828 10.5469 39.4141 9.0625 40.3125 6.57812H41.3555L38.5957 13.8906C38.3223 14.6133 38.002 15.125 37.6348 15.4258C37.2715 15.7305 36.8242 15.8828 36.293 15.8828C35.9961 15.8828 35.7031 15.8496 35.4141 15.7832V15.0039C35.6289 15.0508 35.8691 15.0742 36.1348 15.0742C36.8027 15.0742 37.2793 14.6992 37.5645 13.9492L37.9219 13.0352L35.332 6.57812ZM45.3867 13.1172C44.9688 13.1172 44.5859 13.041 44.2383 12.8887C43.8945 12.7324 43.6055 12.4941 43.3711 12.1738H43.3008C43.3477 12.5488 43.3711 12.9043 43.3711 13.2402V15.8828H42.3984V6.57812H43.1895L43.3242 7.45703H43.3711C43.6211 7.10547 43.9121 6.85156 44.2441 6.69531C44.5762 6.53906 44.957 6.46094 45.3867 6.46094C46.2383 6.46094 46.8945 6.75195 47.3555 7.33398C47.8203 7.91602 48.0527 8.73242 48.0527 9.7832C48.0527 10.8379 47.8164 11.6582 47.3438 12.2441C46.875 12.8262 46.2227 13.1172 45.3867 13.1172ZM45.2461 7.28711C44.5898 7.28711 44.1152 7.46875 43.8223 7.83203C43.5293 8.19531 43.3789 8.77344 43.3711 9.56641V9.7832C43.3711 10.6855 43.5215 11.332 43.8223 11.7227C44.123 12.1094 44.6055 12.3027 45.2695 12.3027C45.8242 12.3027 46.2578 12.0781 46.5703 11.6289C46.8867 11.1797 47.0449 10.5605 47.0449 9.77148C47.0449 8.9707 46.8867 8.35742 46.5703 7.93164C46.2578 7.50195 45.8164 7.28711 45.2461 7.28711ZM52.4707 13.1172C51.5215 13.1172 50.7715 12.8281 50.2207 12.25C49.6738 11.6719 49.4004 10.8691 49.4004 9.8418C49.4004 8.80664 49.6543 7.98438 50.1621 7.375C50.6738 6.76562 51.3594 6.46094 52.2188 6.46094C53.0234 6.46094 53.6602 6.72656 54.1289 7.25781C54.5977 7.78516 54.832 8.48242 54.832 9.34961V9.96484H50.4082C50.4277 10.7188 50.6172 11.291 50.9766 11.6816C51.3398 12.0723 51.8496 12.2676 52.5059 12.2676C53.1973 12.2676 53.8809 12.123 54.5566 11.834V12.7012C54.2129 12.8496 53.8867 12.9551 53.5781 13.0176C53.2734 13.084 52.9043 13.1172 52.4707 13.1172ZM52.207 7.27539C51.6914 7.27539 51.2793 7.44336 50.9707 7.7793C50.666 8.11523 50.4863 8.58008 50.4316 9.17383H53.7891C53.7891 8.56055 53.6523 8.0918 53.3789 7.76758C53.1055 7.43945 52.7148 7.27539 52.207 7.27539ZM61.0078 6.13867C61.0078 6.4082 61.0781 6.66602 61.2188 6.91211C61.3594 7.1543 61.5996 7.44727 61.9395 7.79102C62.4434 7.49805 62.793 7.22852 62.9883 6.98242C63.1875 6.73242 63.2871 6.44531 63.2871 6.12109C63.2871 5.82031 63.1855 5.57617 62.9824 5.38867C62.7832 5.19727 62.5156 5.10156 62.1797 5.10156C61.832 5.10156 61.5488 5.19531 61.3301 5.38281C61.1152 5.57031 61.0078 5.82227 61.0078 6.13867ZM61.916 12.2441C62.8574 12.2441 63.6387 11.9434 64.2598 11.3418L61.6992 8.85742C61.2656 9.12305 60.959 9.34375 60.7793 9.51953C60.5996 9.69141 60.4668 9.87695 60.3809 10.0762C60.2949 10.2754 60.252 10.502 60.252 10.7559C60.252 11.2129 60.4023 11.5762 60.7031 11.8457C61.0078 12.1113 61.4121 12.2441 61.916 12.2441ZM59.2441 10.7793C59.2441 10.2715 59.3789 9.82227 59.6484 9.43164C59.9219 9.04102 60.4102 8.64648 61.1133 8.24805C60.7812 7.87695 60.5547 7.5957 60.4336 7.4043C60.3164 7.21289 60.2227 7.01367 60.1523 6.80664C60.082 6.59961 60.0469 6.38477 60.0469 6.16211C60.0469 5.57617 60.2383 5.11914 60.6211 4.79102C61.0039 4.46289 61.5371 4.29883 62.2207 4.29883C62.8535 4.29883 63.3516 4.46289 63.7148 4.79102C64.0781 5.11523 64.2598 5.56836 64.2598 6.15039C64.2598 6.56836 64.127 6.95508 63.8613 7.31055C63.5957 7.66211 63.1562 8.01953 62.543 8.38281L64.9277 10.6738C65.1465 10.4316 65.3203 10.1484 65.4492 9.82422C65.582 9.49609 65.6934 9.13867 65.7832 8.75195H66.7676C66.502 9.86914 66.1016 10.7168 65.5664 11.2949L67.3184 13H65.9766L64.8926 11.957C64.4316 12.3711 63.9629 12.668 63.4863 12.8477C63.0098 13.0273 62.4785 13.1172 61.8926 13.1172C61.0527 13.1172 60.4004 12.9102 59.9355 12.4961C59.4746 12.082 59.2441 11.5098 59.2441 10.7793ZM74.2793 13H73.2832V5.31836H70.5703V4.43359H76.9922V5.31836H74.2793V13ZM80.8535 13.1172C79.9043 13.1172 79.1543 12.8281 78.6035 12.25C78.0566 11.6719 77.7832 10.8691 77.7832 9.8418C77.7832 8.80664 78.0371 7.98438 78.5449 7.375C79.0566 6.76562 79.7422 6.46094 80.6016 6.46094C81.4062 6.46094 82.043 6.72656 82.5117 7.25781C82.9805 7.78516 83.2148 8.48242 83.2148 9.34961V9.96484H78.791C78.8105 10.7188 79 11.291 79.3594 11.6816C79.7227 12.0723 80.2324 12.2676 80.8887 12.2676C81.5801 12.2676 82.2637 12.123 82.9395 11.834V12.7012C82.5957 12.8496 82.2695 12.9551 81.9609 13.0176C81.6562 13.084 81.2871 13.1172 80.8535 13.1172ZM80.5898 7.27539C80.0742 7.27539 79.6621 7.44336 79.3535 7.7793C79.0488 8.11523 78.8691 8.58008 78.8145 9.17383H82.1719C82.1719 8.56055 82.0352 8.0918 81.7617 7.76758C81.4883 7.43945 81.0977 7.27539 80.5898 7.27539ZM89.0215 11.248C89.0215 11.8457 88.7988 12.3066 88.3535 12.6309C87.9082 12.9551 87.2832 13.1172 86.4785 13.1172C85.627 13.1172 84.9629 12.9824 84.4863 12.7129V11.8105C84.7949 11.9668 85.125 12.0898 85.4766 12.1797C85.832 12.2695 86.1738 12.3145 86.502 12.3145C87.0098 12.3145 87.4004 12.2344 87.6738 12.0742C87.9473 11.9102 88.084 11.6621 88.084 11.3301C88.084 11.0801 87.9746 10.8672 87.7559 10.6914C87.541 10.5117 87.1191 10.3008 86.4902 10.0586C85.8926 9.83594 85.4668 9.64258 85.2129 9.47852C84.9629 9.31055 84.7754 9.12109 84.6504 8.91016C84.5293 8.69922 84.4688 8.44727 84.4688 8.1543C84.4688 7.63086 84.6816 7.21875 85.1074 6.91797C85.5332 6.61328 86.1172 6.46094 86.8594 6.46094C87.5508 6.46094 88.2266 6.60156 88.8867 6.88281L88.541 7.67383C87.8965 7.4082 87.3125 7.27539 86.7891 7.27539C86.3281 7.27539 85.9805 7.34766 85.7461 7.49219C85.5117 7.63672 85.3945 7.83594 85.3945 8.08984C85.3945 8.26172 85.4375 8.4082 85.5234 8.5293C85.6133 8.65039 85.7559 8.76562 85.9512 8.875C86.1465 8.98438 86.5215 9.14258 87.0762 9.34961C87.8379 9.62695 88.3516 9.90625 88.6172 10.1875C88.8867 10.4688 89.0215 10.8223 89.0215 11.248ZM92.6836 12.3145C92.8555 12.3145 93.0215 12.3027 93.1816 12.2793C93.3418 12.252 93.4688 12.2246 93.5625 12.1973V12.9414C93.457 12.9922 93.3008 13.0332 93.0938 13.0645C92.8906 13.0996 92.707 13.1172 92.543 13.1172C91.3008 13.1172 90.6797 12.4629 90.6797 11.1543V7.33398H89.7598V6.86523L90.6797 6.46094L91.0898 5.08984H91.6523V6.57812H93.5156V7.33398H91.6523V11.1133C91.6523 11.5 91.7441 11.7969 91.9277 12.0039C92.1113 12.2109 92.3633 12.3145 92.6836 12.3145ZM95.8242 13H94.8516V6.57812H95.8242V13ZM94.7695 4.83789C94.7695 4.61523 94.8242 4.45312 94.9336 4.35156C95.043 4.24609 95.1797 4.19336 95.3438 4.19336C95.5 4.19336 95.6348 4.24609 95.748 4.35156C95.8613 4.45703 95.918 4.61914 95.918 4.83789C95.918 5.05664 95.8613 5.2207 95.748 5.33008C95.6348 5.43555 95.5 5.48828 95.3438 5.48828C95.1797 5.48828 95.043 5.43555 94.9336 5.33008C94.8242 5.2207 94.7695 5.05664 94.7695 4.83789ZM102.281 13V8.8457C102.281 8.32227 102.162 7.93164 101.924 7.67383C101.686 7.41602 101.312 7.28711 100.805 7.28711C100.133 7.28711 99.6406 7.46875 99.3281 7.83203C99.0156 8.19531 98.8594 8.79492 98.8594 9.63086V13H97.8867V6.57812H98.6777L98.8359 7.45703H98.8828C99.082 7.14062 99.3613 6.89648 99.7207 6.72461C100.08 6.54883 100.48 6.46094 100.922 6.46094C101.695 6.46094 102.277 6.64844 102.668 7.02344C103.059 7.39453 103.254 7.99023 103.254 8.81055V13H102.281ZM110.514 6.57812V7.19336L109.324 7.33398C109.434 7.4707 109.531 7.65039 109.617 7.87305C109.703 8.0918 109.746 8.33984 109.746 8.61719C109.746 9.24609 109.531 9.74805 109.102 10.123C108.672 10.498 108.082 10.6855 107.332 10.6855C107.141 10.6855 106.961 10.6699 106.793 10.6387C106.379 10.8574 106.172 11.1328 106.172 11.4648C106.172 11.6406 106.244 11.7715 106.389 11.8574C106.533 11.9395 106.781 11.9805 107.133 11.9805H108.27C108.965 11.9805 109.498 12.127 109.869 12.4199C110.244 12.7129 110.432 13.1387 110.432 13.6973C110.432 14.4082 110.146 14.9492 109.576 15.3203C109.006 15.6953 108.174 15.8828 107.08 15.8828C106.24 15.8828 105.592 15.7266 105.135 15.4141C104.682 15.1016 104.455 14.6602 104.455 14.0898C104.455 13.6992 104.58 13.3613 104.83 13.0762C105.08 12.791 105.432 12.5977 105.885 12.4961C105.721 12.4219 105.582 12.3066 105.469 12.1504C105.359 11.9941 105.305 11.8125 105.305 11.6055C105.305 11.3711 105.367 11.166 105.492 10.9902C105.617 10.8145 105.814 10.6445 106.084 10.4805C105.752 10.3438 105.48 10.1113 105.27 9.7832C105.062 9.45508 104.959 9.08008 104.959 8.6582C104.959 7.95508 105.17 7.41406 105.592 7.03516C106.014 6.65234 106.611 6.46094 107.385 6.46094C107.721 6.46094 108.023 6.5 108.293 6.57812H110.514ZM105.393 14.0781C105.393 14.4258 105.539 14.6895 105.832 14.8691C106.125 15.0488 106.545 15.1387 107.092 15.1387C107.908 15.1387 108.512 15.0156 108.902 14.7695C109.297 14.5273 109.494 14.1973 109.494 13.7793C109.494 13.4316 109.387 13.1895 109.172 13.0527C108.957 12.9199 108.553 12.8535 107.959 12.8535H106.793C106.352 12.8535 106.008 12.959 105.762 13.1699C105.516 13.3809 105.393 13.6836 105.393 14.0781ZM105.92 8.63477C105.92 9.08398 106.047 9.42383 106.301 9.6543C106.555 9.88477 106.908 10 107.361 10C108.311 10 108.785 9.53906 108.785 8.61719C108.785 7.65234 108.305 7.16992 107.344 7.16992C106.887 7.16992 106.535 7.29297 106.289 7.53906C106.043 7.78516 105.92 8.15039 105.92 8.63477Z" transform="translate(153 -2)" fill="black"/>
<path d="M5.23438 5.20117C4.29297 5.20117 3.54883 5.51562 3.00195 6.14453C2.45898 6.76953 2.1875 7.62695 2.1875 8.7168C2.1875 9.83789 2.44922 10.7051 2.97266 11.3184C3.5 11.9277 4.25 12.2324 5.22266 12.2324C5.82031 12.2324 6.50195 12.125 7.26758 11.9102V12.7832C6.67383 13.0059 5.94141 13.1172 5.07031 13.1172C3.80859 13.1172 2.83398 12.7344 2.14648 11.9688C1.46289 11.2031 1.12109 10.1152 1.12109 8.70508C1.12109 7.82227 1.28516 7.04883 1.61328 6.38477C1.94531 5.7207 2.42188 5.20898 3.04297 4.84961C3.66797 4.49023 4.40234 4.31055 5.24609 4.31055C6.14453 4.31055 6.92969 4.47461 7.60156 4.80273L7.17969 5.6582C6.53125 5.35352 5.88281 5.20117 5.23438 5.20117ZM14.5332 9.7832C14.5332 10.8301 14.2695 11.6484 13.7422 12.2383C13.2148 12.8242 12.4863 13.1172 11.5566 13.1172C10.9824 13.1172 10.4727 12.9824 10.0273 12.7129C9.58203 12.4434 9.23828 12.0566 8.99609 11.5527C8.75391 11.0488 8.63281 10.459 8.63281 9.7832C8.63281 8.73633 8.89453 7.92188 9.41797 7.33984C9.94141 6.75391 10.668 6.46094 11.5977 6.46094C12.4961 6.46094 13.209 6.75977 13.7363 7.35742C14.2676 7.95508 14.5332 8.76367 14.5332 9.7832ZM9.64062 9.7832C9.64062 10.6035 9.80469 11.2285 10.1328 11.6582C10.4609 12.0879 10.9434 12.3027 11.5801 12.3027C12.2168 12.3027 12.6992 12.0898 13.0273 11.6641C13.3594 11.2344 13.5254 10.6074 13.5254 9.7832C13.5254 8.9668 13.3594 8.34766 13.0273 7.92578C12.6992 7.5 12.2129 7.28711 11.5684 7.28711C10.9316 7.28711 10.4512 7.49609 10.127 7.91406C9.80273 8.33203 9.64062 8.95508 9.64062 9.7832ZM20.6387 13V8.8457C20.6387 8.32227 20.5195 7.93164 20.2812 7.67383C20.043 7.41602 19.6699 7.28711 19.1621 7.28711C18.4902 7.28711 17.998 7.46875 17.6855 7.83203C17.373 8.19531 17.2168 8.79492 17.2168 9.63086V13H16.2441V6.57812H17.0352L17.1934 7.45703H17.2402C17.4395 7.14062 17.7188 6.89648 18.0781 6.72461C18.4375 6.54883 18.8379 6.46094 19.2793 6.46094C20.0527 6.46094 20.6348 6.64844 21.0254 7.02344C21.416 7.39453 21.6113 7.99023 21.6113 8.81055V13H20.6387ZM26.1816 13.1172C25.252 13.1172 24.5312 12.832 24.0195 12.2617C23.5117 11.6875 23.2578 10.877 23.2578 9.83008C23.2578 8.75586 23.5156 7.92578 24.0312 7.33984C24.5508 6.75391 25.2891 6.46094 26.2461 6.46094C26.5547 6.46094 26.8633 6.49414 27.1719 6.56055C27.4805 6.62695 27.7227 6.70508 27.8984 6.79492L27.5996 7.62109C27.3848 7.53516 27.1504 7.46484 26.8965 7.41016C26.6426 7.35156 26.418 7.32227 26.2227 7.32227C24.918 7.32227 24.2656 8.1543 24.2656 9.81836C24.2656 10.6074 24.4238 11.2129 24.7402 11.6348C25.0605 12.0566 25.5332 12.2676 26.1582 12.2676C26.6934 12.2676 27.2422 12.1523 27.8047 11.9219V12.7832C27.375 13.0059 26.834 13.1172 26.1816 13.1172ZM30.3066 13H29.334V3.88281H30.3066V13ZM33.2832 6.57812V10.7441C33.2832 11.2676 33.4023 11.6582 33.6406 11.916C33.8789 12.1738 34.252 12.3027 34.7598 12.3027C35.4316 12.3027 35.9219 12.1191 36.2305 11.752C36.543 11.3848 36.6992 10.7852 36.6992 9.95312V6.57812H37.6719V13H36.8691L36.7285 12.1387H36.6758C36.4766 12.4551 36.1992 12.6973 35.8438 12.8652C35.4922 13.0332 35.0898 13.1172 34.6367 13.1172C33.8555 13.1172 33.2695 12.9316 32.8789 12.5605C32.4922 12.1895 32.2988 11.5957 32.2988 10.7793V6.57812H33.2832ZM41.8145 12.3145C41.9863 12.3145 42.1523 12.3027 42.3125 12.2793C42.4727 12.252 42.5996 12.2246 42.6934 12.1973V12.9414C42.5879 12.9922 42.4316 13.0332 42.2246 13.0645C42.0215 13.0996 41.8379 13.1172 41.6738 13.1172C40.4316 13.1172 39.8105 12.4629 39.8105 11.1543V7.33398H38.8906V6.86523L39.8105 6.46094L40.2207 5.08984H40.7832V6.57812H42.6465V7.33398H40.7832V11.1133C40.7832 11.5 40.875 11.7969 41.0586 12.0039C41.2422 12.2109 41.4941 12.3145 41.8145 12.3145ZM44.9551 13H43.9824V6.57812H44.9551V13ZM43.9004 4.83789C43.9004 4.61523 43.9551 4.45312 44.0645 4.35156C44.1738 4.24609 44.3105 4.19336 44.4746 4.19336C44.6309 4.19336 44.7656 4.24609 44.8789 4.35156C44.9922 4.45703 45.0488 4.61914 45.0488 4.83789C45.0488 5.05664 44.9922 5.2207 44.8789 5.33008C44.7656 5.43555 44.6309 5.48828 44.4746 5.48828C44.3105 5.48828 44.1738 5.43555 44.0645 5.33008C43.9551 5.2207 43.9004 5.05664 43.9004 4.83789ZM52.5605 9.7832C52.5605 10.8301 52.2969 11.6484 51.7695 12.2383C51.2422 12.8242 50.5137 13.1172 49.584 13.1172C49.0098 13.1172 48.5 12.9824 48.0547 12.7129C47.6094 12.4434 47.2656 12.0566 47.0234 11.5527C46.7812 11.0488 46.6602 10.459 46.6602 9.7832C46.6602 8.73633 46.9219 7.92188 47.4453 7.33984C47.9688 6.75391 48.6953 6.46094 49.625 6.46094C50.5234 6.46094 51.2363 6.75977 51.7637 7.35742C52.2949 7.95508 52.5605 8.76367 52.5605 9.7832ZM47.668 9.7832C47.668 10.6035 47.832 11.2285 48.1602 11.6582C48.4883 12.0879 48.9707 12.3027 49.6074 12.3027C50.2441 12.3027 50.7266 12.0898 51.0547 11.6641C51.3867 11.2344 51.5527 10.6074 51.5527 9.7832C51.5527 8.9668 51.3867 8.34766 51.0547 7.92578C50.7266 7.5 50.2402 7.28711 49.5957 7.28711C48.959 7.28711 48.4785 7.49609 48.1543 7.91406C47.8301 8.33203 47.668 8.95508 47.668 9.7832ZM58.666 13V8.8457C58.666 8.32227 58.5469 7.93164 58.3086 7.67383C58.0703 7.41602 57.6973 7.28711 57.1895 7.28711C56.5176 7.28711 56.0254 7.46875 55.7129 7.83203C55.4004 8.19531 55.2441 8.79492 55.2441 9.63086V13H54.2715V6.57812H55.0625L55.2207 7.45703H55.2676C55.4668 7.14062 55.7461 6.89648 56.1055 6.72461C56.4648 6.54883 56.8652 6.46094 57.3066 6.46094C58.0801 6.46094 58.6621 6.64844 59.0527 7.02344C59.4434 7.39453 59.6387 7.99023 59.6387 8.81055V13H58.666Z" transform="translate(209 48)" fill="black"/>
<path d="M1.64258 4.43359H4.0625C5.19922 4.43359 6.02148 4.60352 6.5293 4.94336C7.03711 5.2832 7.29102 5.82031 7.29102 6.55469C7.29102 7.0625 7.14844 7.48242 6.86328 7.81445C6.58203 8.14258 6.16992 8.35547 5.62695 8.45312V8.51172C6.92773 8.73438 7.57812 9.41797 7.57812 10.5625C7.57812 11.3281 7.31836 11.9258 6.79883 12.3555C6.2832 12.7852 5.56055 13 4.63086 13H1.64258V4.43359ZM2.63867 8.10156H4.2793C4.98242 8.10156 5.48828 7.99219 5.79688 7.77344C6.10547 7.55078 6.25977 7.17773 6.25977 6.6543C6.25977 6.17383 6.08789 5.82812 5.74414 5.61719C5.40039 5.40234 4.85352 5.29492 4.10352 5.29492H2.63867V8.10156ZM2.63867 8.94531V12.1504H4.42578C5.11719 12.1504 5.63672 12.0176 5.98438 11.752C6.33594 11.4824 6.51172 11.0625 6.51172 10.4922C6.51172 9.96094 6.33203 9.57031 5.97266 9.32031C5.61719 9.07031 5.07422 8.94531 4.34375 8.94531H2.63867ZM12.207 6.46094C12.4922 6.46094 12.748 6.48438 12.9746 6.53125L12.8398 7.43359C12.5742 7.375 12.3398 7.3457 12.1367 7.3457C11.6172 7.3457 11.1719 7.55664 10.8008 7.97852C10.4336 8.40039 10.25 8.92578 10.25 9.55469V13H9.27734V6.57812H10.0801L10.1914 7.76758H10.2383C10.4766 7.34961 10.7637 7.02734 11.0996 6.80078C11.4355 6.57422 11.8047 6.46094 12.207 6.46094ZM18.125 13L17.9316 12.0859H17.8848C17.5645 12.4883 17.2441 12.7617 16.9238 12.9062C16.6074 13.0469 16.2109 13.1172 15.7344 13.1172C15.0977 13.1172 14.5977 12.9531 14.2344 12.625C13.875 12.2969 13.6953 11.8301 13.6953 11.2246C13.6953 9.92773 14.7324 9.24805 16.8066 9.18555L17.8965 9.15039V8.75195C17.8965 8.24805 17.7871 7.87695 17.5684 7.63867C17.3535 7.39648 17.0078 7.27539 16.5312 7.27539C15.9961 7.27539 15.3906 7.43945 14.7148 7.76758L14.416 7.02344C14.7324 6.85156 15.0781 6.7168 15.4531 6.61914C15.832 6.52148 16.2109 6.47266 16.5898 6.47266C17.3555 6.47266 17.9219 6.64258 18.2891 6.98242C18.6602 7.32227 18.8457 7.86719 18.8457 8.61719V13H18.125ZM15.9277 12.3145C16.5332 12.3145 17.0078 12.1484 17.3516 11.8164C17.6992 11.4844 17.873 11.0195 17.873 10.4219V9.8418L16.9004 9.88281C16.127 9.91016 15.5684 10.0312 15.2246 10.2461C14.8848 10.457 14.7148 10.7871 14.7148 11.2363C14.7148 11.5879 14.8203 11.8555 15.0312 12.0391C15.2461 12.2227 15.5449 12.3145 15.9277 12.3145ZM25.25 13V8.8457C25.25 8.32227 25.1309 7.93164 24.8926 7.67383C24.6543 7.41602 24.2812 7.28711 23.7734 7.28711C23.1016 7.28711 22.6094 7.46875 22.2969 7.83203C21.9844 8.19531 21.8281 8.79492 21.8281 9.63086V13H20.8555V6.57812H21.6465L21.8047 7.45703H21.8516C22.0508 7.14062 22.3301 6.89648 22.6895 6.72461C23.0488 6.54883 23.4492 6.46094 23.8906 6.46094C24.6641 6.46094 25.2461 6.64844 25.6367 7.02344C26.0273 7.39453 26.2227 7.99023 26.2227 8.81055V13H25.25ZM32.5977 12.1387H32.5449C32.0957 12.791 31.4238 13.1172 30.5293 13.1172C29.6895 13.1172 29.0352 12.8301 28.5664 12.2559C28.1016 11.6816 27.8691 10.8652 27.8691 9.80664C27.8691 8.74805 28.1035 7.92578 28.5723 7.33984C29.041 6.75391 29.6934 6.46094 30.5293 6.46094C31.4004 6.46094 32.0684 6.77734 32.5332 7.41016H32.6094L32.5684 6.94727L32.5449 6.49609V3.88281H33.5176V13H32.7266L32.5977 12.1387ZM30.6523 12.3027C31.3164 12.3027 31.7969 12.123 32.0938 11.7637C32.3945 11.4004 32.5449 10.8164 32.5449 10.0117V9.80664C32.5449 8.89648 32.3926 8.24805 32.0879 7.86133C31.7871 7.4707 31.3047 7.27539 30.6406 7.27539C30.0703 7.27539 29.6328 7.49805 29.3281 7.94336C29.0273 8.38477 28.877 9.00977 28.877 9.81836C28.877 10.6387 29.0273 11.2578 29.3281 11.6758C29.6289 12.0938 30.0703 12.3027 30.6523 12.3027ZM36.5586 13H35.5859V6.57812H36.5586V13ZM35.5039 4.83789C35.5039 4.61523 35.5586 4.45312 35.668 4.35156C35.7773 4.24609 35.9141 4.19336 36.0781 4.19336C36.2344 4.19336 36.3691 4.24609 36.4824 4.35156C36.5957 4.45703 36.6523 4.61914 36.6523 4.83789C36.6523 5.05664 36.5957 5.2207 36.4824 5.33008C36.3691 5.43555 36.2344 5.48828 36.0781 5.48828C35.9141 5.48828 35.7773 5.43555 35.668 5.33008C35.5586 5.2207 35.5039 5.05664 35.5039 4.83789ZM43.0156 13V8.8457C43.0156 8.32227 42.8965 7.93164 42.6582 7.67383C42.4199 7.41602 42.0469 7.28711 41.5391 7.28711C40.8672 7.28711 40.375 7.46875 40.0625 7.83203C39.75 8.19531 39.5938 8.79492 39.5938 9.63086V13H38.6211V6.57812H39.4121L39.5703 7.45703H39.6172C39.8164 7.14062 40.0957 6.89648 40.4551 6.72461C40.8145 6.54883 41.2148 6.46094 41.6562 6.46094C42.4297 6.46094 43.0117 6.64844 43.4023 7.02344C43.793 7.39453 43.9883 7.99023 43.9883 8.81055V13H43.0156ZM51.248 6.57812V7.19336L50.0586 7.33398C50.168 7.4707 50.2656 7.65039 50.3516 7.87305C50.4375 8.0918 50.4805 8.33984 50.4805 8.61719C50.4805 9.24609 50.2656 9.74805 49.8359 10.123C49.4062 10.498 48.8164 10.6855 48.0664 10.6855C47.875 10.6855 47.6953 10.6699 47.5273 10.6387C47.1133 10.8574 46.9062 11.1328 46.9062 11.4648C46.9062 11.6406 46.9785 11.7715 47.123 11.8574C47.2676 11.9395 47.5156 11.9805 47.8672 11.9805H49.0039C49.6992 11.9805 50.2324 12.127 50.6035 12.4199C50.9785 12.7129 51.166 13.1387 51.166 13.6973C51.166 14.4082 50.8809 14.9492 50.3105 15.3203C49.7402 15.6953 48.9082 15.8828 47.8145 15.8828C46.9746 15.8828 46.3262 15.7266 45.8691 15.4141C45.416 15.1016 45.1895 14.6602 45.1895 14.0898C45.1895 13.6992 45.3145 13.3613 45.5645 13.0762C45.8145 12.791 46.166 12.5977 46.6191 12.4961C46.4551 12.4219 46.3164 12.3066 46.2031 12.1504C46.0938 11.9941 46.0391 11.8125 46.0391 11.6055C46.0391 11.3711 46.1016 11.166 46.2266 10.9902C46.3516 10.8145 46.5488 10.6445 46.8184 10.4805C46.4863 10.3438 46.2148 10.1113 46.0039 9.7832C45.7969 9.45508 45.6934 9.08008 45.6934 8.6582C45.6934 7.95508 45.9043 7.41406 46.3262 7.03516C46.748 6.65234 47.3457 6.46094 48.1191 6.46094C48.4551 6.46094 48.7578 6.5 49.0273 6.57812H51.248ZM46.127 14.0781C46.127 14.4258 46.2734 14.6895 46.5664 14.8691C46.8594 15.0488 47.2793 15.1387 47.8262 15.1387C48.6426 15.1387 49.2461 15.0156 49.6367 14.7695C50.0312 14.5273 50.2285 14.1973 50.2285 13.7793C50.2285 13.4316 50.1211 13.1895 49.9062 13.0527C49.6914 12.9199 49.2871 12.8535 48.6934 12.8535H47.5273C47.0859 12.8535 46.7422 12.959 46.4961 13.1699C46.25 13.3809 46.127 13.6836 46.127 14.0781ZM46.6543 8.63477C46.6543 9.08398 46.7812 9.42383 47.0352 9.6543C47.2891 9.88477 47.6426 10 48.0957 10C49.0449 10 49.5195 9.53906 49.5195 8.61719C49.5195 7.65234 49.0391 7.16992 48.0781 7.16992C47.6211 7.16992 47.2695 7.29297 47.0234 7.53906C46.7773 7.78516 46.6543 8.15039 46.6543 8.63477Z" transform="translate(121 49)" fill="black"/>
</svg>
