<svg width="24" height="24" viewBox="0 0 20 20" fill="none" xmlns="http://www.w3.org/2000/svg">
  <path d="M15.4286 8V6.28571H4.57143V8H15.4286Z" fill="#504840"/>
  <path d="M15.4286 13.7143V12H4.57143V13.7143H15.4286Z" fill="#504840"/>
  <path d="M4.57143 9.14286H15.4286V10.8571H4.57143V9.14286Z" fill="#504840"/>
  <path fill-rule="evenodd" clip-rule="evenodd" d="M20 10C20 15.5228 15.5228 20 10 20C4.47716 20 0 15.5228 0 10C0 4.47716 4.47716 0 10 0C15.5228 0 20 4.47716 20 10ZM18.3333 10C18.3333 14.6024 14.6024 18.3334 10 18.3334C5.39763 18.3334 1.66667 14.6024 1.66667 10C1.66667 5.39764 5.39763 1.66668 10 1.66668C14.6024 1.66668 18.3333 5.39764 18.3333 10Z" fill="#504840"/>
</svg>
