<?xml version="1.0" standalone="no"?>
<!DOCTYPE svg PUBLIC "-//W3C//DTD SVG 20010904//EN"
 "http://www.w3.org/TR/2001/REC-SVG-20010904/DTD/svg10.dtd">
<svg version="1.0" xmlns="http://www.w3.org/2000/svg"
 width="700.000000pt" height="700.000000pt" viewBox="0 0 700.000000 700.000000"
 preserveAspectRatio="xMidYMid meet">
<metadata>
Created by potrace 1.11, written by Peter Selinger 2001-2013
</metadata>
<g transform="translate(0.000000,700.000000) scale(0.100000,-0.100000)"
fill="#000000" stroke="none">
<path d="M1225 6139 c-121 -15 -227 -103 -270 -224 -17 -47 -18 -145 -20
-1645 -1 -1231 1 -1610 11 -1661 47 -247 233 -450 477 -520 55 -15 113 -21
242 -25 l170 -5 0 569 0 570 189 109 c104 59 207 119 230 132 23 13 119 68
215 123 95 55 187 108 205 118 17 11 58 34 91 53 33 18 146 83 250 144 105 60
210 121 235 135 25 14 143 82 263 152 120 69 220 126 222 126 2 0 20 11 39 23
l34 24 -985 0 -986 0 1 434 c0 239 1 442 1 452 1 16 80 17 1524 17 l1524 0 -2
163 c-2 178 -7 215 -38 297 -75 202 -214 336 -425 411 -29 10 -72 21 -95 25
-52 9 -3032 11 -3102 3z"/>
<path d="M5190 4372 l0 -570 -107 -62 c-60 -35 -124 -71 -143 -82 -19 -11
-172 -99 -340 -196 -168 -97 -316 -182 -330 -189 -14 -8 -39 -22 -56 -33 -40
-23 -274 -158 -334 -192 -107 -60 -168 -96 -207 -121 -24 -15 -45 -27 -47 -27
-2 0 -44 -23 -93 -51 -48 -29 -113 -65 -143 -82 -30 -17 -56 -34 -58 -39 -2
-4 -9 -8 -15 -8 -7 0 -31 -13 -55 -28 l-42 -29 967 1 c533 1 976 0 986 -3 16
-3 17 -31 17 -452 l-1 -449 -1525 0 -1526 0 5 -178 c5 -190 6 -203 39 -289 34
-92 86 -172 158 -242 109 -108 238 -171 385 -188 90 -11 3059 -9 3105 1 79 18
162 78 207 149 54 86 53 40 53 1302 2 2229 5 2050 -32 2160 -72 218 -249 381
-483 445 -22 6 -118 13 -212 16 l-173 6 0 -570z"/>
</g>
</svg>
