<?xml version="1.0" encoding="UTF-8"?>
<svg width="252px" height="252px" viewBox="0 0 252 252" version="1.1" xmlns="http://www.w3.org/2000/svg" xmlns:xlink="http://www.w3.org/1999/xlink">
    <!-- Generator: Sketch 50.2 (55047) - http://www.bohemiancoding.com/sketch -->
    <title>Logo/icon color 1</title>
    <desc>Created with Sketch.</desc>
    <defs></defs>
    <g id="Page-1" stroke="none" stroke-width="1" fill="none" fill-rule="evenodd">
        <g id="Hive---Style-Guide-V3" transform="translate(-149.000000, -1274.000000)">
            <g id="Logo" transform="translate(33.000000, 490.000000)">
                <g id="Logo/icon-color-1" transform="translate(116.000000, 784.000000)">
                    <rect id="Rectangle-5-Copy-5" fill="#504840" x="0" y="0" width="252" height="252" rx="30"></rect>
                    <g id="logo-yellow-icon" transform="translate(50.000000, 34.000000)" fill="#FFE06D">
                        <g id="Group-2" transform="translate(1.416667, 1.419355)">
                            <g id="Group">
                                <path d="M76.4870031,0 L151.583333,43.2903226 L151.583333,129.870968 L76.4870031,173.16129 L1.42108547e-14,129.870968 L1.42108547e-14,43.2903226 L76.4870031,0 Z M147.411315,127.105153 L147.411315,51.6690947 L79.2683486,90.3073996 L79.2683486,166.17898 L147.411315,127.105153 Z M139.067278,65.6337149 L139.067278,120.923718 L126.083333,128.467109 L126.083333,105.798208 L100.59633,120.605606 L100.59633,143.274507 L87.6123853,150.817898 L87.6123853,95.5278954 L100.59633,87.984504 L100.59633,109.784562 L126.083333,94.9771644 L126.083333,73.1771062 L139.067278,65.6337149 Z" id="Combined-Shape"></path>
                            </g>
                        </g>
                    </g>
                </g>
            </g>
        </g>
    </g>
</svg>