<?xml version="1.0" encoding="UTF-8"?>
<svg width="442px" height="178px" viewBox="0 0 442 178" version="1.1" xmlns="http://www.w3.org/2000/svg" xmlns:xlink="http://www.w3.org/1999/xlink">
    <!-- Generator: Sketch 50.2 (55047) - http://www.bohemiancoding.com/sketch -->
    <title>Logo/big color 1</title>
    <desc>Created with Sketch.</desc>
    <defs></defs>
    <g id="Page-1" stroke="none" stroke-width="1" fill="none" fill-rule="evenodd">
        <g id="Hive---Style-Guide-V3" transform="translate(-257.000000, -748.000000)">
            <g id="Logo" transform="translate(33.000000, 490.000000)">
                <g id="Logo/big-color-1" transform="translate(224.014125, 258.000000)">
                    <rect id="Rectangle-5-Copy-5" fill="#504840" x="0" y="0" width="441" height="178" rx="30"></rect>
                    <g id="logo-yellow" transform="translate(114.000000, 27.000000)" fill="#FFE06D">
                        <g id="Group">
                            <path d="M109,31 L214,31 L214,93 L213.145161,93 L109,93 L55,124 L0,93 L0,31 L55,0 L109,31 Z M109.67101,36 L57,65 L57,119 L109.67101,89.5 L211,89.5 L211,36 L109.67101,36 Z M100,47 L100,86.5929155 L90.6635514,91.9947031 L90.6635514,75.7616078 L72.3364486,86.365117 L72.3364486,102.598212 L63,108 L63,68.4070845 L72.3364486,63.0052969 L72.3364486,78.6162178 L90.6635514,68.0127086 L90.6635514,52.4017877 L100,47 Z M109,42 L119,42 L119,82 L109,82 L109,42 Z M168,42 L150.176471,82 L140.764706,82 L123,42 L133.294118,42 L145.823529,70.5714286 L158.529412,42 L168,42 Z M205,74.5714286 L205,82 L173,82 L173,42 L204.232472,42 L204.232472,49.4285714 L182.505535,49.4285714 L182.505535,58.1142857 L201.693727,58.1142857 L201.693727,65.3142857 L182.505535,65.3142857 L182.505535,74.5714286 L205,74.5714286 Z" id="Combined-Shape"></path>
                        </g>
                    </g>
                </g>
            </g>
        </g>
    </g>
</svg>