<?xml version="1.0" encoding="UTF-8"?>
<svg width="252px" height="252px" viewBox="0 0 252 252" version="1.1" xmlns="http://www.w3.org/2000/svg" xmlns:xlink="http://www.w3.org/1999/xlink">
    <!-- Generator: Sketch 50.2 (55047) - http://www.bohemiancoding.com/sketch -->
    <title>Logo/icon color 2</title>
    <desc>Created with Sketch.</desc>
    <defs></defs>
    <g id="Page-1" stroke="none" stroke-width="1" fill="none" fill-rule="evenodd">
        <g id="Hive---Style-Guide-V3" transform="translate(-446.000000, -1274.000000)">
            <g id="Logo" transform="translate(33.000000, 490.000000)">
                <g id="Logo/icon-color-2" transform="translate(413.000000, 784.000000)">
                    <rect id="Rectangle-5-Copy-5" fill="#FFE06D" x="0" y="0" width="252" height="252" rx="30"></rect>
                    <path d="M127.90367,35.4193548 L203,78.7096774 L203,165.290323 L127.90367,208.580645 L51.4166667,165.290323 L51.4166667,78.7096774 L127.90367,35.4193548 Z M198.827982,162.524508 L198.827982,87.0884495 L130.685015,125.726754 L130.685015,201.598335 L198.827982,162.524508 Z M190.483945,101.05307 L190.483945,156.343072 L177.5,163.886464 L177.5,141.217563 L152.012997,156.02496 L152.012997,178.693862 L139.029052,186.237253 L139.029052,130.94725 L152.012997,123.403859 L152.012997,145.203917 L177.5,130.396519 L177.5,108.596461 L190.483945,101.05307 Z" id="Combined-Shape" fill="#504840"></path>
                </g>
            </g>
        </g>
    </g>
</svg>