<svg width="30" height="30" viewBox="0 0 30 30" fill="none" xmlns="http://www.w3.org/2000/svg">
<path d="M28.8616 0H1.22215C0.56407 0 0 0.5625 0 1.21875V28.6875C0 29.4375 0.56407 30 1.22215 30H28.7676C29.4256 30 29.9897 29.4375 29.9897 28.7812V1.21875C30.0837 0.5625 29.5197 0 28.8616 0ZM8.93111 25.5938H4.41855V11.25H8.93111V25.5938ZM6.67483 9.28125C5.26465 9.28125 4.0425 8.15625 4.0425 6.65625C4.0425 5.25 5.17064 4.03125 6.67483 4.03125C8.085 4.03125 9.30715 5.15625 9.30715 6.65625C9.30715 8.15625 8.085 9.28125 6.67483 9.28125ZM25.6652 25.5938H21.2466V18.6562C21.2466 16.9688 21.2466 14.9062 18.8963 14.9062C16.546 14.9062 16.264 16.6875 16.264 18.5625V25.6875H11.8455V11.25H15.982V13.2188H16.076C16.6401 12.0938 18.1442 10.875 20.3065 10.875C24.8191 10.875 25.6652 13.875 25.6652 17.7188V25.5938Z" fill="#F2F2F2"/>
</svg>
