<svg width="30" height="26" viewBox="0 0 30 26" fill="none" xmlns="http://www.w3.org/2000/svg">
<path d="M30 3.1C28.8785 3.6 27.757 4 26.4486 4.1C27.757 3.3 28.6916 2 29.1589 0.5C27.9439 1.3 26.6355 1.8 25.2336 2.1C24.1122 0.8 22.5234 0 20.8411 0C17.4766 0 14.6729 2.9 14.6729 6.6C14.6729 7.1 14.7664 7.6 14.8598 8.1C9.71963 7.8 5.23364 5.2 2.14953 1.2C1.58879 2.2 1.30841 3.3 1.30841 4.5C1.30841 6.8 2.42991 8.8 4.01869 10C2.99065 10 2.05607 9.7 1.21495 9.2V9.3C1.21495 12.5 3.36449 15.1 6.16822 15.7C5.60748 15.8 5.14019 15.9 4.57944 15.9C4.20561 15.9 3.83178 15.9 3.45794 15.8C4.20561 18.4 6.54206 20.3 9.15888 20.4C7.1028 22.2 4.39252 23.2 1.49533 23.2C1.02804 23.2 0.46729 23.2 -1.39263e-09 23.1C2.80374 24.9 6.07477 26 9.53271 26C20.8411 26 27.0093 16 27.0093 7.3C27.0093 7 27.0093 6.7 27.0093 6.5C28.1308 5.5 29.1589 4.4 30 3.1Z" fill="#F2F2F2"/>
</svg>
