<svg width="21" height="22" viewBox="0 0 21 22" fill="none" xmlns="http://www.w3.org/2000/svg">
<path fill-rule="evenodd" clip-rule="evenodd" d="M2.69574 16.9759C1.20114 16.9585 -0.00116187 15.7156 8.42611e-07 14.1892L0.00974915 1.39132C0.0103346 0.622741 0.620598 0 1.37319 0H13.3668C14.8785 0 16.1017 1.25586 16.0937 2.79963L16.0887 3.75949H3.6813V7.51899H11.7256L3.6792 12.2532L3.67228 16.9873L2.69574 16.9759Z" fill="#FC999E"/>
<path fill-rule="evenodd" clip-rule="evenodd" d="M18.3043 5.02405C19.7989 5.04149 21.0012 6.28441 21 7.81085L20.9903 20.6087C20.9897 21.3773 20.3794 22 19.6268 22H7.6332C6.1215 22 4.8983 20.7441 4.90635 19.2004L4.91135 18.2405H17.3187V14.481H9.27437L17.3208 9.74684L17.3277 5.01266L18.3043 5.02405Z" fill="#FC999E"/>
</svg>
