<svg width="94" height="93" viewBox="0 0 94 93" fill="none" xmlns="http://www.w3.org/2000/svg">
<rect width="65.5526" height="65.72" rx="10" fill="black" fill-opacity="0.1"/>
<rect width="65.5526" height="65.72" rx="10" transform="translate(28.4474 27.28)" fill="black" fill-opacity="0.1"/>
<path fill-rule="evenodd" clip-rule="evenodd" d="M7.18863 44.7548C3.20304 44.7088 -0.00309832 41.432 2.24696e-06 37.4078L0.0259977 3.66803C0.0275589 1.64177 1.65493 0 3.66185 0H35.6448C39.676 0 42.9379 3.31089 42.9164 7.38085L42.9031 9.91139H9.8168V19.8228H31.2683L9.81121 32.3038L9.79274 44.7848L7.18863 44.7548Z" transform="translate(19 17)" fill="#FC999E"/>
<path fill-rule="evenodd" clip-rule="evenodd" d="M48.8114 13.2452C52.797 13.2912 56.0031 16.568 56 20.5922L55.974 54.332C55.9724 56.3582 54.3451 58 52.3381 58H20.3552C16.324 58 13.0621 54.6891 13.0836 50.6191L13.0969 48.0886H46.1832V38.1772H24.7317L46.1888 25.6962L46.2073 13.2152L48.8114 13.2452Z" transform="translate(19 17)" fill="#FC999E"/>
</svg>
