<svg width="149" height="28" viewBox="0 0 149 28" fill="none" xmlns="http://www.w3.org/2000/svg">
<rect width="149" height="10" transform="translate(0 18)" fill="#291E41"/>
<g style="mix-blend-mode:hard-light" transform="translate(1)">
<path d="M17.8023 24.2717C18.0357 25.0833 18.2871 25.692 18.5564 26.0978C18.8437 26.4783 19.122 26.6812 19.3913 26.7065V27.4674C18.0985 27.3913 16.4646 27.3533 14.4896 27.3533C12.4427 27.3533 10.9345 27.3913 9.96497 27.4674V26.7065C10.6473 26.6558 11.132 26.5417 11.4193 26.3641C11.7066 26.1612 11.8502 25.8188 11.8502 25.337C11.8502 24.8804 11.7425 24.2717 11.527 23.5109L9.93804 17.2717H4.4977L4.03985 18.9837C3.44734 21.1395 3.15109 22.788 3.15109 23.9293C3.15109 24.9692 3.35757 25.6793 3.77053 26.0598C4.18349 26.4402 4.79396 26.6558 5.60193 26.7065V27.4674C4.25531 27.3913 3.07927 27.3533 2.07379 27.3533C1.22991 27.3533 0.538647 27.3913 0 27.4674V26.7065C0.448873 26.6051 0.870813 26.212 1.26582 25.5272C1.66083 24.8424 2.06481 23.7518 2.47778 22.2554L8.45676 0.532609C9.03132 0.583334 9.50712 0.608697 9.88417 0.608697C10.2433 0.608697 10.7101 0.583334 11.2847 0.532609L17.8023 24.2717ZM9.74951 16.5109L7.29867 7L4.71316 16.5109H9.74951Z" fill="white"/>
<path d="M29.4869 13.3533C31.2465 13.4801 32.6919 13.8732 33.823 14.5326C34.9721 15.192 35.8071 16.0163 36.3277 17.0054C36.8484 17.9692 37.1088 18.9964 37.1088 20.087C37.1088 22.5725 36.4085 24.4239 35.0081 25.6413C33.6076 26.8587 31.6146 27.4674 29.0291 27.4674C28.5084 27.4674 28.0685 27.4547 27.7094 27.4293C26.4885 27.3786 25.2945 27.3533 24.1274 27.3533C22.0267 27.3533 20.4646 27.3913 19.4412 27.4674V26.7065C20.0157 26.6558 20.4287 26.5543 20.68 26.4022C20.9494 26.25 21.1289 25.9583 21.2187 25.5272C21.3085 25.096 21.3534 24.3986 21.3534 23.4348V4.56522C21.3534 3.60145 21.2995 2.90399 21.1918 2.47283C21.102 2.04167 20.9314 1.75 20.68 1.59783C20.4287 1.44565 20.0157 1.3442 19.4412 1.29348V0.532609C20.4646 0.608696 22.0087 0.64674 24.0735 0.64674L27.1707 0.608697C27.5298 0.583333 27.9428 0.570652 28.4096 0.570652C30.7797 0.570652 32.5841 1.11594 33.823 2.20652C35.0799 3.27174 35.7083 4.71739 35.7083 6.54348C35.7083 7.48188 35.4749 8.43297 35.0081 9.39674C34.5412 10.3351 33.841 11.1594 32.9073 11.8696C31.9737 12.5797 30.8335 13.0489 29.4869 13.2772V13.3533ZM28.275 1.29348C27.862 1.29348 27.5478 1.38225 27.3323 1.55978C27.1348 1.73732 27.0002 2.05435 26.9284 2.51087C26.8565 2.96739 26.8206 3.65217 26.8206 4.56522V13.163H27.5478C28.5174 13.163 29.1907 12.6051 29.5677 11.4891C29.9627 10.3478 30.1602 8.83877 30.1602 6.96196C30.1602 5.03442 30.0076 3.61413 29.7024 2.70109C29.4151 1.76268 28.9393 1.29348 28.275 1.29348ZM28.5712 26.5924C30.4924 26.5924 31.453 24.3732 31.453 19.9348C31.453 17.9312 31.1118 16.4094 30.4296 15.3696C29.7473 14.3297 28.67 13.8098 27.1977 13.8098H26.8206V23.4348C26.8206 24.3478 26.8655 25.0199 26.9553 25.4511C27.0451 25.8822 27.2067 26.1866 27.4401 26.3641C27.6914 26.5163 28.0685 26.5924 28.5712 26.5924Z" fill="white"/>
<path d="M48.8002 0C50.8291 0 52.6066 0.54529 54.1328 1.63587C55.6589 2.72645 56.844 4.31159 57.6878 6.3913C58.5317 8.44565 58.9537 10.9058 58.9537 13.7717C58.9537 16.5616 58.5227 19.0344 57.6609 21.1902C56.7991 23.346 55.5961 25.0199 54.052 26.212C52.5078 27.404 50.7483 28 48.7732 28C46.7443 28 44.9668 27.4547 43.4406 26.3641C41.9145 25.2736 40.7294 23.7011 39.8855 21.6467C39.0417 19.567 38.6197 17.0942 38.6197 14.2283C38.6197 11.4384 39.0506 8.96558 39.9125 6.80978C40.7743 4.65399 41.9773 2.98007 43.5214 1.78804C45.0655 0.596014 46.8251 0 48.8002 0ZM48.6924 0.684783C47.8126 0.684783 47.0316 1.25544 46.3493 2.39674C45.685 3.51268 45.1733 5.08514 44.8142 7.11413C44.4551 9.14312 44.2755 11.4638 44.2755 14.0761C44.2755 16.7138 44.482 19.0344 44.895 21.038C45.3079 23.0417 45.8645 24.5888 46.5648 25.6793C47.265 26.7699 48.0371 27.3152 48.881 27.3152C49.7607 27.3152 50.5328 26.7572 51.1971 25.6413C51.8794 24.5 52.4001 22.9149 52.7592 20.8859C53.1183 18.8569 53.2979 16.5362 53.2979 13.9239C53.2979 11.2862 53.0914 8.96558 52.6784 6.96196C52.2655 4.95833 51.7089 3.41123 51.0086 2.32065C50.3084 1.23007 49.5363 0.684783 48.6924 0.684783Z" fill="white"/>
<path d="M78.1366 1.29348C77.58 1.47101 77.1671 1.75 76.8978 2.13043C76.6284 2.48551 76.4489 3.04348 76.3591 3.80435C76.2693 4.56522 76.2244 5.70652 76.2244 7.22826V16.3967C76.2244 20.0489 75.8564 22.7373 75.1202 24.462C74.6354 25.6033 73.9172 26.4783 72.9656 27.087C72.032 27.6957 70.82 28 69.3298 28C67.1572 28 65.4695 27.3913 64.2665 26.1739C63.3867 25.2862 62.7942 24.0942 62.4889 22.5978C62.2017 21.1014 62.058 19.0725 62.058 16.5109V4.56522C62.058 3.60145 62.0131 2.90399 61.9234 2.47283C61.8336 2.04167 61.654 1.75 61.3847 1.59783C61.1333 1.44565 60.7204 1.3442 60.1458 1.29348V0.532609C61.1693 0.608696 62.7493 0.64674 64.8859 0.64674C67.0046 0.64674 68.6116 0.608696 69.7068 0.532609V1.29348C69.0604 1.3442 68.5846 1.44565 68.2794 1.59783C67.9921 1.75 67.7946 2.04167 67.6869 2.47283C67.5792 2.90399 67.5253 3.60145 67.5253 4.56522V20.087C67.5253 22.5217 67.7946 24.2337 68.3333 25.2228C68.8719 26.1866 69.7248 26.6685 70.8918 26.6685C72.5976 26.6685 73.8095 25.8188 74.5277 24.1196C75.2459 22.3949 75.605 19.9601 75.605 16.8152V7.98913C75.605 6.11232 75.5511 4.76812 75.4434 3.95652C75.3357 3.11957 75.0933 2.51087 74.7162 2.13043C74.3571 1.75 73.7467 1.47101 72.8848 1.29348V0.532609C73.621 0.608696 74.6265 0.64674 75.9013 0.64674C76.8529 0.64674 77.598 0.608696 78.1366 0.532609V1.29348Z" fill="white"/>
<path d="M96.6758 0.532609C96.5501 3.34783 96.4873 5.8587 96.4873 8.06522C96.4873 9.23188 96.5142 10.1449 96.568 10.8043H95.9486C95.3561 7.48188 94.593 5.08515 93.6594 3.61413C92.7257 2.14312 91.7202 1.40761 90.6429 1.40761H90.616V23.1685C90.616 24.2337 90.6878 25.0072 90.8315 25.4891C90.993 25.971 91.2714 26.3007 91.6664 26.4783C92.0793 26.6304 92.7257 26.7065 93.6055 26.7065V27.4674C91.0738 27.3913 89.1078 27.3533 87.7073 27.3533C86.4325 27.3533 84.5832 27.3913 82.1592 27.4674V26.7065C83.039 26.7065 83.6764 26.6304 84.0714 26.4783C84.4844 26.3007 84.7627 25.971 84.9063 25.4891C85.0679 25.0072 85.1487 24.2337 85.1487 23.1685V1.40761H85.1218C84.0266 1.40761 83.0121 2.14312 82.0784 3.61413C81.1627 5.05978 80.4086 7.45652 79.8161 10.8043H79.1967C79.2505 10.1449 79.2775 9.23188 79.2775 8.06522C79.2775 5.8587 79.2146 3.34783 79.089 0.532609C80.7947 0.608696 83.7303 0.64674 87.8958 0.64674C92.0434 0.64674 94.9701 0.608696 96.6758 0.532609Z" fill="white"/>
<path d="M127.902 1.29348C127.328 1.3442 126.906 1.44565 126.636 1.59783C126.385 1.75 126.214 2.04167 126.125 2.47283C126.035 2.90399 125.99 3.60145 125.99 4.56522V23.4348C125.99 24.3986 126.035 25.096 126.125 25.5272C126.232 25.9583 126.412 26.25 126.663 26.4022C126.915 26.5543 127.328 26.6558 127.902 26.7065V27.4674C126.807 27.3913 125.218 27.3533 123.135 27.3533C120.963 27.3533 119.365 27.3913 118.341 27.4674V26.7065C118.988 26.6558 119.454 26.5543 119.742 26.4022C120.047 26.25 120.253 25.9583 120.361 25.5272C120.469 25.096 120.523 24.3986 120.523 23.4348V3.99457L114.032 27.4293H113.601L106.006 3.00543V20.0109C106.006 21.8877 106.06 23.2446 106.168 24.0815C106.275 24.8931 106.509 25.4891 106.868 25.8696C107.245 26.25 107.864 26.529 108.726 26.7065V27.4674C107.99 27.3913 106.985 27.3533 105.71 27.3533C104.758 27.3533 104.013 27.3913 103.475 27.4674V26.7065C104.031 26.529 104.444 26.2627 104.713 25.9076C104.983 25.5272 105.162 24.9565 105.252 24.1957C105.342 23.4348 105.387 22.2935 105.387 20.7717V4.56522C105.387 3.60145 105.333 2.90399 105.225 2.47283C105.135 2.04167 104.965 1.75 104.713 1.59783C104.462 1.44565 104.049 1.3442 103.475 1.29348V0.532609C104.013 0.608696 104.758 0.64674 105.71 0.64674C107.864 0.64674 109.723 0.608696 111.285 0.532609L116.375 16.7011L120.792 0.64674H123.135C125.218 0.64674 126.807 0.608696 127.902 0.532609V1.29348Z" fill="white"/>
<path d="M144.811 21.0761C144.811 23.663 144.874 25.7935 145 27.4674C143.779 27.3913 141.723 27.3533 138.832 27.3533C134.631 27.3533 131.489 27.3913 129.406 27.4674V26.7065C129.981 26.6558 130.394 26.5543 130.645 26.4022C130.914 26.25 131.094 25.9583 131.184 25.5272C131.273 25.096 131.318 24.3986 131.318 23.4348V4.56522C131.318 3.60145 131.264 2.90399 131.157 2.47283C131.067 2.04167 130.896 1.75 130.645 1.59783C130.394 1.44565 129.981 1.3442 129.406 1.29348V0.532609C131.489 0.608696 134.631 0.64674 138.832 0.64674C141.472 0.64674 143.348 0.608696 144.461 0.532609C144.336 2.91667 144.273 5.0471 144.273 6.92391C144.273 8.09058 144.3 9.00362 144.354 9.66304H143.734C143.411 6.72102 142.809 4.61594 141.93 3.34783C141.05 2.05435 140 1.40761 138.779 1.40761H138.429C137.944 1.40761 137.585 1.47101 137.351 1.59783C137.136 1.69928 136.983 1.91486 136.893 2.24457C136.822 2.54891 136.786 3.06884 136.786 3.80435V13.5435H137.055C137.989 13.5435 138.788 13.0236 139.452 11.9837C140.116 10.9438 140.538 9.78986 140.718 8.52174H141.337C141.283 9.58696 141.256 10.779 141.256 12.0978V13.9239C141.256 15.2174 141.31 17.0181 141.418 19.3261H140.799C140.637 17.8804 140.215 16.6884 139.533 15.75C138.868 14.7862 138.042 14.3043 137.055 14.3043H136.786V24.1957C136.786 24.9312 136.822 25.4638 136.893 25.7935C136.983 26.0978 137.136 26.3134 137.351 26.4402C137.585 26.5417 137.944 26.5924 138.429 26.5924H139.317C140.359 26.5924 141.346 25.8822 142.28 24.462C143.213 23.0163 143.878 20.721 144.273 17.5761H144.892C144.838 18.4891 144.811 19.6558 144.811 21.0761Z" fill="white"/>
</g>
</svg>
