<svg width="99" height="3" viewBox="0 0 99 3" fill="none" xmlns="http://www.w3.org/2000/svg">
<path fill-rule="evenodd" clip-rule="evenodd" d="M1.5 3C2.32843 3 3 2.32843 3 1.5C3 0.67157 2.32843 0 1.5 0C0.67157 0 0 0.67157 0 1.5C0 2.32843 0.67157 3 1.5 3ZM1.5 8C2.32843 8 3 7.32843 3 6.5C3 5.67157 2.32843 5 1.5 5C0.67157 5 0 5.67157 0 6.5C0 7.32843 0.67157 8 1.5 8ZM3 11.5C3 12.3284 2.32843 13 1.5 13C0.67157 13 0 12.3284 0 11.5C0 10.6716 0.67157 10 1.5 10C2.32843 10 3 10.6716 3 11.5ZM1.5 18C2.32843 18 3 17.3284 3 16.5C3 15.6716 2.32843 15 1.5 15C0.67157 15 0 15.6716 0 16.5C0 17.3284 0.67157 18 1.5 18ZM3 21.5C3 22.3284 2.32843 23 1.5 23C0.67157 23 0 22.3284 0 21.5C0 20.6716 0.67157 20 1.5 20C2.32843 20 3 20.6716 3 21.5ZM1.5 28C2.32843 28 3 27.3284 3 26.5C3 25.6716 2.32843 25 1.5 25C0.67157 25 0 25.6716 0 26.5C0 27.3284 0.67157 28 1.5 28ZM3 31.5C3 32.3284 2.32843 33 1.5 33C0.67157 33 0 32.3284 0 31.5C0 30.6716 0.67157 30 1.5 30C2.32843 30 3 30.6716 3 31.5ZM1.5 38C2.32843 38 3 37.3284 3 36.5C3 35.6716 2.32843 35 1.5 35C0.67157 35 0 35.6716 0 36.5C0 37.3284 0.67157 38 1.5 38ZM3 41.5C3 42.3284 2.32843 43 1.5 43C0.67157 43 0 42.3284 0 41.5C0 40.6716 0.67157 40 1.5 40C2.32843 40 3 40.6716 3 41.5ZM1.5 48C2.32843 48 3 47.3284 3 46.5C3 45.6716 2.32843 45 1.5 45C0.67157 45 0 45.6716 0 46.5C0 47.3284 0.67157 48 1.5 48ZM3 51.5C3 52.3284 2.32843 53 1.5 53C0.67157 53 0 52.3284 0 51.5C0 50.6716 0.67157 50 1.5 50C2.32843 50 3 50.6716 3 51.5ZM1.5 58C2.32843 58 3 57.3284 3 56.5C3 55.6716 2.32843 55 1.5 55C0.67157 55 0 55.6716 0 56.5C0 57.3284 0.67157 58 1.5 58ZM3 61.5C3 62.3284 2.32843 63 1.5 63C0.67157 63 0 62.3284 0 61.5C0 60.6716 0.67157 60 1.5 60C2.32843 60 3 60.6716 3 61.5ZM1.5 68C2.32843 68 3 67.3284 3 66.5C3 65.6716 2.32843 65 1.5 65C0.67157 65 0 65.6716 0 66.5C0 67.3284 0.67157 68 1.5 68ZM3 71.5C3 72.3284 2.32843 73 1.5 73C0.67157 73 0 72.3284 0 71.5C0 70.6716 0.67157 70 1.5 70C2.32843 70 3 70.6716 3 71.5ZM1.5 78C2.32843 78 3 77.3284 3 76.5C3 75.6716 2.32843 75 1.5 75C0.67157 75 0 75.6716 0 76.5C0 77.3284 0.67157 78 1.5 78ZM3 81.5C3 82.3284 2.32843 83 1.5 83C0.67157 83 0 82.3284 0 81.5C0 80.6716 0.67157 80 1.5 80C2.32843 80 3 80.6716 3 81.5ZM1.5 88C2.32843 88 3 87.3284 3 86.5C3 85.6716 2.32843 85 1.5 85C0.67157 85 0 85.6716 0 86.5C0 87.3284 0.67157 88 1.5 88ZM3 91.5C3 92.3284 2.32843 93 1.5 93C0.67157 93 0 92.3284 0 91.5C0 90.6716 0.67157 90 1.5 90C2.32843 90 3 90.6716 3 91.5ZM1.5 98C2.32843 98 3 97.3284 3 96.5C3 95.6716 2.32843 95 1.5 95C0.67157 95 0 95.6716 0 96.5C0 97.3284 0.67157 98 1.5 98ZM3 101.5C3 102.328 2.32843 103 1.5 103C0.67157 103 0 102.328 0 101.5C0 100.672 0.67157 100 1.5 100C2.32843 100 3 100.672 3 101.5ZM1.5 108C2.32843 108 3 107.328 3 106.5C3 105.672 2.32843 105 1.5 105C0.67157 105 0 105.672 0 106.5C0 107.328 0.67157 108 1.5 108ZM3 111.5C3 112.328 2.32843 113 1.5 113C0.67157 113 0 112.328 0 111.5C0 110.672 0.67157 110 1.5 110C2.32843 110 3 110.672 3 111.5ZM1.5 118C2.32843 118 3 117.328 3 116.5C3 115.672 2.32843 115 1.5 115C0.67157 115 0 115.672 0 116.5C0 117.328 0.67157 118 1.5 118Z" transform="translate(-19 3) rotate(-90)" fill="#E5E5E5"/>
</svg>
