<svg width="40" height="40" viewBox="0 0 40 40" fill="none" xmlns="http://www.w3.org/2000/svg">
<path d="M38.4821 0H1.62953C0.752093 0 0 0.75 0 1.625V38.25C0 39.25 0.752093 40 1.62953 40H38.3567C39.2342 40 39.9863 39.25 39.9863 38.375V1.625C40.1116 0.75 39.3595 0 38.4821 0ZM11.9081 34.125H5.8914V15H11.9081V34.125ZM8.89977 12.375C7.01954 12.375 5.39 10.875 5.39 8.875C5.39 7 6.89419 5.375 8.89977 5.375C10.78 5.375 12.4095 6.875 12.4095 8.875C12.4095 10.875 10.78 12.375 8.89977 12.375ZM34.2202 34.125H28.3288V24.875C28.3288 22.625 28.3288 19.875 25.1951 19.875C22.0614 19.875 21.6853 22.25 21.6853 24.75V34.25H15.794V15H21.3093V17.625H21.4347C22.1867 16.125 24.1923 14.5 27.0754 14.5C33.0921 14.5 34.2202 18.5 34.2202 23.625V34.125Z" fill="#FC999E"/>
</svg>
