<svg width="40" height="40" viewBox="0 0 40 40" fill="none" xmlns="http://www.w3.org/2000/svg">
<path fill-rule="evenodd" clip-rule="evenodd" d="M20 7.63785e-09C9 7.63785e-09 0 9.22621 0 20.5027C0 29.6007 5.75 37.2893 13.625 39.9802C14.625 40.1084 15 39.5958 15 38.9551C15 38.4425 15 37.1611 15 35.4953C9.375 36.7767 8.25 32.8043 8.25 32.8043C7.375 30.4977 6 29.857 6 29.857C4.125 28.5756 6.125 28.5756 6.125 28.5756C8.125 28.7038 9.25 30.6259 9.25 30.6259C11 33.7013 13.875 32.8043 15.125 32.2917C15.25 31.0103 15.875 30.1133 16.375 29.6007C11.875 29.0882 7.25 27.2942 7.25 19.4776C7.25 17.2991 8 15.377 9.25 13.9675C9 13.4549 8.375 11.4046 9.5 8.5855C9.5 8.5855 11.125 8.07293 15 10.6358C16.625 10.1232 18.25 9.99506 20 9.99506C21.75 9.99506 23.375 10.2513 25 10.6358C28.875 7.94479 30.5 8.45736 30.5 8.45736C31.625 11.2765 30.875 13.3267 30.75 13.8393C32 15.2489 32.75 17.0429 32.75 19.3494C32.75 27.1661 28.125 28.96 23.625 29.4726C24.375 30.1133 25 31.3947 25 33.3169C25 36.0078 25 38.3144 25 38.9551C25 39.4677 25.375 40.1084 26.375 39.9802C34.25 37.2893 40 29.6007 40 20.5027C40 9.22621 31 7.63785e-09 20 7.63785e-09Z" fill="#FC999E"/>
</svg>
