<svg width="40" height="35" viewBox="0 0 40 35" fill="none" xmlns="http://www.w3.org/2000/svg">
<path d="M40 4.13333C38.5047 4.8 37.0093 5.33333 35.2648 5.46667C37.0093 4.4 38.2555 2.66667 38.8785 0.666667C37.2586 1.73333 35.514 2.4 33.6449 2.8C32.1495 1.06667 30.0312 0 27.7882 0C23.3022 0 19.5639 3.86667 19.5639 8.8C19.5639 9.46667 19.6885 10.1333 19.8131 10.8C12.9595 10.4 6.97819 6.93333 2.86604 1.6C2.11838 2.93333 1.74455 4.4 1.74455 6C1.74455 9.06667 3.23988 11.7333 5.35826 13.3333C3.98754 13.3333 2.74143 12.9333 1.61994 12.2667V12.4C1.61994 16.6667 4.48598 20.1333 8.2243 20.9333C7.47664 21.0667 6.85358 21.2 6.10592 21.2C5.60748 21.2 5.10903 21.2 4.61059 21.0667C5.60748 24.5333 8.72274 27.0667 12.2118 27.2C9.47041 29.6 5.8567 30.9333 1.99377 30.9333C1.37072 30.9333 0.623053 30.9333 -1.85684e-09 30.8C3.73832 33.2 8.09969 34.6667 12.7103 34.6667C27.7882 34.6667 36.0125 21.3333 36.0125 9.73333C36.0125 9.33333 36.0125 8.93333 36.0125 8.66667C37.5078 7.33333 38.8785 5.86667 40 4.13333Z" fill="#FC999E"/>
</svg>
