<svg width="91" height="94" viewBox="0 0 91 94" fill="none" xmlns="http://www.w3.org/2000/svg">
<path fill-rule="evenodd" clip-rule="evenodd" d="M11.6815 72.5336C5.20494 72.4591 -0.00503478 67.1484 3.65132e-06 60.6264L0.0422463 5.94474C0.0447832 2.6608 2.68926 0 5.95051 0H57.9228C64.4735 0 69.774 5.36593 69.7392 11.9621L69.7175 16.0633H15.9523V32.1266H50.811L15.9432 52.3544L15.9132 72.5823L11.6815 72.5336Z" fill="#FC999E"/>
<path fill-rule="evenodd" clip-rule="evenodd" d="M79.3185 21.4664C85.7951 21.5409 91.005 26.8516 91 33.3736L90.9578 88.0553C90.9552 91.3392 88.3107 94 85.0495 94H33.0772C26.5265 94 21.226 88.6341 21.2608 82.0379L21.2825 77.9367H75.0477V61.8734H40.189L75.0568 41.6456L75.0868 21.4177L79.3185 21.4664Z" fill="#FC999E"/>
</svg>
