<?xml version="1.0" encoding="UTF-8"?>
<svg width="95px" height="95px" viewBox="0 0 95 95" version="1.1" xmlns="http://www.w3.org/2000/svg" xmlns:xlink="http://www.w3.org/1999/xlink">
    <!-- Generator: Sketch 50 (54983) - http://www.bohemiancoding.com/sketch -->
    <title>ur_result2-1</title>
    <desc>Created with Sketch.</desc>
    <defs></defs>
    <g id="Case-Study" stroke="none" stroke-width="1" fill="none" fill-rule="evenodd">
        <g id="HIVE---Case-Study-Page-1" transform="translate(-522.000000, -3183.000000)">
            <g id="Group-4" transform="translate(480.000000, 3170.000000)">
                <g id="ur_result2-1" transform="translate(29.000000, 0.000000)">
                    <path d="M77.7643593,21.6529527 C72.488979,19.3049592 66.6468843,18 60.5,18 C37.0278981,18 18,37.0278981 18,60.5 C18,83.9721019 37.0278981,103 60.5,103 C83.9721019,103 103,83.9721019 103,60.5" id="Oval" stroke="#FA926E" stroke-width="10" stroke-linecap="round" transform="translate(60.500000, 60.500000) rotate(-48.000000) translate(-60.500000, -60.500000) "></path>
                    <path d="M77.7643593,21.6529527 C72.488979,19.3049592 66.6468843,18 60.5,18 C37.0278981,18 18,37.0278981 18,60.5 C18,83.9721019 37.0278981,103 60.5,103 C83.9721019,103 103,83.9721019 103,60.5" id="Oval" stroke="#B4B3B5" stroke-width="10" transform="translate(60.500000, 60.500000) rotate(22.000000) translate(-60.500000, -60.500000) "></path>
                    <text id="14%" font-family="Ubuntu-Medium, Ubuntu" font-size="30" font-weight="400" fill="#504840">
                        <tspan x="30" y="69">14%</tspan>
                    </text>
                </g>
            </g>
        </g>
    </g>
</svg>